<?xml version="1.0" encoding="utf-8"?>
<!-- Generator: Adobe Illustrator 18.0.0, SVG Export Plug-In . SVG Version: 6.00 Build 0)  -->
<!DOCTYPE svg PUBLIC "-//W3C//DTD SVG 1.1//EN" "http://www.w3.org/Graphics/SVG/1.1/DTD/svg11.dtd">
<svg version="1.1" id="Camada_1" xmlns="http://www.w3.org/2000/svg" xmlns:xlink="http://www.w3.org/1999/xlink" x="0px" y="0px"
	 viewBox="0 0 1578.3 841.9" enable-background="new 0 0 1578.3 841.9" xml:space="preserve">
<rect x="0" y="0.9" fill="#985023" width="1578.3" height="841.9"/>
<path fill="#FFDF79" d="M871.3,362.1c0-41.5-33.7-75.2-75.2-75.2s-75.2,33.7-75.2,75.2H871.3z"/>
<rect x="720.9" y="362.1" fill="#EEBE4D" width="147" height="12.1"/>
<rect x="720.9" y="362.1" fill="#FEE994" width="147" height="6"/>
<polygon fill="#F7B519" points="929.6,605.1 929.6,374.2 662.6,374.2 662.6,605.1 527.5,605.1 527.5,842.8 662.6,842.8 929.6,842.8 
	1064.6,842.8 1064.6,605.1 "/>
<rect x="527.5" y="813.4" fill="#EA9723" width="537.1" height="29.4"/>
<rect x="527.5" y="813.4" fill="#D68C28" width="537.1" height="7.3"/>
<rect x="527.5" y="660.9" fill="#EBA025" width="537.1" height="7.3"/>
<rect x="724.2" y="374.2" fill="#FFC538" width="143.7" height="468.6"/>
<rect x="577.6" y="605.1" fill="#FFC538" width="34.8" height="208.2"/>
<rect x="657.9" y="605.1" fill="#FFC538" width="4.6" height="208.2"/>
<rect x="657.9" y="600.5" fill="#FFC538" width="276.3" height="4.6"/>
<rect x="929.6" y="605.1" fill="#FFC538" width="4.6" height="208.2"/>
<circle fill="#FFFFFF" cx="796.1" cy="421" r="23.3"/>
<path fill="#985023" d="M595.1,675.2c-8.9,0-16.1,5.6-16.1,12.6v46.4h32.2v-46.4C611.2,680.9,603.9,675.2,595.1,675.2z"/>
<g>
	<path fill="#FFDF79" d="M595.1,677.7c6.8,0,12.6,4,12.6,8.8v45.3h-25.1v-45.3C582.5,681.7,588.2,677.7,595.1,677.7 M595.1,672.8
		c-9.6,0-17.4,6.1-17.4,13.6v50.2h34.8v-50.2C612.5,678.9,604.7,672.8,595.1,672.8L595.1,672.8z"/>
</g>
<rect x="979.7" y="605.1" fill="#FFC538" width="34.8" height="208.2"/>
<rect x="517.9" y="648.5" fill="#FFD355" width="556.3" height="12.4"/>
<rect x="724.2" y="565.5" fill="#FDD677" width="143.7" height="3.3"/>
<rect x="517.9" y="805.4" fill="#FFC538" width="556.3" height="8"/>
<path fill="#FFDF79" d="M795.7,691.4c-32.8,0-59.5,22.2-59.5,49.7v101.2h118.9V741.1C855.1,713.7,828.5,691.4,795.7,691.4z"/>
<path fill="#985023" d="M795.7,701.8c-26.6,0-48.1,19.4-48.1,43.3v97.3h96.2v-97.3C843.8,721.2,822.2,701.8,795.7,701.8z"/>
<rect x="731.4" y="750.6" fill="#FFDF79" width="20.7" height="4.7"/>
<rect x="839.6" y="751" fill="#FFDF79" width="20.7" height="4.7"/>
<rect x="577.6" y="660.9" fill="#ECB030" width="34.8" height="7.3"/>
<rect x="979.7" y="660.9" fill="#ECB030" width="34.8" height="7.3"/>
<rect x="724.2" y="660.9" fill="#ECB030" width="143.7" height="7.3"/>
<path fill="#985023" d="M595.1,751.3c-8.9,0-16.1,5.6-16.1,12.6v46.4h32.2v-46.4C611.2,756.9,603.9,751.3,595.1,751.3z"/>
<g>
	<path fill="#FFDF79" d="M595.1,753.7c6.8,0,12.6,4,12.6,8.8v45.3h-25.1v-45.3C582.5,757.7,588.2,753.7,595.1,753.7 M595.1,748.8
		c-9.6,0-17.4,6.1-17.4,13.6v50.2h34.8v-50.2C612.5,755,604.7,748.8,595.1,748.8L595.1,748.8z"/>
</g>
<path fill="#985023" d="M996.5,752.6c-8.7,0-15.8,5.5-15.8,12.4v45.4h31.6V765C1012.3,758.1,1005.2,752.6,996.5,752.6z"/>
<path fill="#985023" d="M997.1,673.7c-9.1,0-16.6,5.8-16.6,13v47.7h33.1v-47.7C1013.6,679.5,1006.2,673.7,997.1,673.7z"/>
<g>
	<path fill="#FFDF79" d="M997.1,677c6.8,0,12.6,4,12.6,8.8V731h-25.1v-45.3C984.5,681,990.3,677,997.1,677 M997.1,672.1
		c-9.6,0-17.4,6.1-17.4,13.6v50.2h34.8v-50.2C1014.5,678.2,1006.7,672.1,997.1,672.1L997.1,672.1z"/>
</g>
<g>
	<path fill="#FFDF79" d="M996.5,754.4c6.8,0,12.6,4,12.6,8.8v45.3H984v-45.3C984,758.5,989.7,754.4,996.5,754.4 M996.5,749.6
		c-9.6,0-17.4,6.1-17.4,13.6v50.2h34.8v-50.2C1013.9,755.7,1006.1,749.6,996.5,749.6L996.5,749.6z"/>
</g>
<polygon fill="#985023" points="806.3,419 797.8,419 797.8,405.2 793.7,405.2 793.7,419 793.7,423 793.7,423 797.8,423 797.8,423 
	806.3,423 "/>
<path fill="#985023" d="M766.6,551.4c-7.7,0-14,4.9-14,10.9v32.6h28v-32.6C780.6,556.3,774.3,551.4,766.6,551.4z"/>
<g>
	<path fill="#FDD677" d="M766.6,553.1c6,0,11.1,3.5,11.1,7.7v32.4h-22.3v-32.4C755.5,556.6,760.6,553.1,766.6,553.1 M766.6,548.2
		c-8.8,0-16,5.6-16,12.5V598h32v-37.3C782.6,553.8,775.5,548.2,766.6,548.2L766.6,548.2z"/>
</g>
<path fill="#985023" d="M825.5,552c-7.5,0-13.6,4.8-13.6,10.6v31.6h27.1v-31.6C839.1,556.7,833,552,825.5,552z"/>
<g>
	<path fill="#FDD677" d="M825.5,553.1c6,0,11.1,3.5,11.1,7.7v32.4h-22.3v-32.4C814.4,556.6,819.5,553.1,825.5,553.1 M825.5,548.2
		c-8.8,0-16,5.6-16,12.5V598h32v-37.3C841.5,553.8,834.3,548.2,825.5,548.2L825.5,548.2z"/>
</g>
<rect x="724.2" y="480.7" fill="#FDD677" width="143.7" height="3.3"/>
<path fill="#985023" d="M766.6,465c-8.3,0-15,5.2-15,11.7v34.8h29.9v-34.8C781.6,470.3,774.9,465,766.6,465z"/>
<path fill="#985023" d="M825.5,467.3c-7.4,0-13.5,4.7-13.5,10.5v31.4H839v-31.4C839,472.1,832.9,467.3,825.5,467.3z"/>
<g>
	<path fill="#FDD677" d="M825.5,468.3c6,0,11.1,3.5,11.1,7.7v32.4h-22.3v-32.4C814.4,471.8,819.5,468.3,825.5,468.3 M825.5,463.4
		c-8.8,0-16,5.6-16,12.5v37.3h32v-37.3C841.5,469,834.3,463.4,825.5,463.4L825.5,463.4z"/>
</g>
<g>
	<path fill="#FDD677" d="M766.6,468.3c6,0,11.1,3.5,11.1,7.7v32.4h-22.3v-32.4C755.5,471.8,760.6,468.3,766.6,468.3 M766.6,463.4
		c-8.8,0-16,5.6-16,12.5v37.3h32v-37.3C782.6,469,775.5,463.4,766.6,463.4L766.6,463.4z"/>
</g>
<rect x="782.6" y="605.1" fill="#EA9723" width="29.4" height="43.4"/>
<polygon fill="#FFC538" points="725.5,374.2 661.4,374.2 644.8,350.1 740.7,350.1 "/>
<path fill="#FFC538" d="M665.4,350.1c0-11.4-9.2-20.6-20.6-20.6v20.6H665.4z"/>
<path fill="#FFC538" d="M720.1,350.1c0-11.4,9.2-20.6,20.6-20.6v20.6H720.1z"/>
<path fill="#FFC538" d="M679.1,336.4c-7.6,0-13.7,6.1-13.7,13.7h13.7h13.7C692.8,342.5,686.6,336.4,679.1,336.4z"/>
<path fill="#FFC538" d="M706.4,336.4c-7.6,0-13.7,6.1-13.7,13.7h13.7h13.7C720.1,342.5,714,336.4,706.4,336.4z"/>
<rect x="644.8" y="346.7" fill="#FDD677" width="95.9" height="3.3"/>
<polygon fill="#F1BA39" points="738.6,353.4 647.1,353.4 644.8,350.1 740.7,350.1 "/>
<polygon fill="#FFC538" points="931.3,374.2 867.2,374.2 850.7,350.1 946.6,350.1 "/>
<path fill="#FFC538" d="M871.3,350.1c0-11.4-9.2-20.6-20.6-20.6v20.6H871.3z"/>
<path fill="#FFC538" d="M926,350.1c0-11.4,9.2-20.6,20.6-20.6v20.6H926z"/>
<path fill="#FFC538" d="M884.9,336.4c-7.6,0-13.7,6.1-13.7,13.7h13.7h13.7C898.6,342.5,892.5,336.4,884.9,336.4z"/>
<path fill="#FFC538" d="M912.3,336.4c-7.6,0-13.7,6.1-13.7,13.7h13.7H926C926,342.5,919.9,336.4,912.3,336.4z"/>
<rect x="850.7" y="346.7" fill="#FDD677" width="95.9" height="3.3"/>
<polygon fill="#F1BA39" points="944.5,353.4 853,353.4 850.7,350.1 946.6,350.1 "/>
<rect x="796.1" y="286.9" fill="#EEBE4D" width="0" height="0"/>
<rect x="795.4" y="228.8" fill="#FFDF79" width="1.3" height="58.1"/>
<g>
	<circle fill="#9CC93C" cx="476" cy="762.2" r="38.8"/>
	<polygon fill="#945D38" points="497.5,774.9 492.3,769.7 482.2,779.8 482.2,755.2 469.6,755.2 469.6,778.7 460.6,769.7 
		455.4,774.9 469.6,789 469.6,842.8 482.2,842.8 482.2,790.2 	"/>
	<circle fill="#36B577" cx="430.9" cy="783.7" r="28.5"/>
	<polygon fill="#FFC538" points="446.7,793 442.9,789.2 435.5,796.6 435.5,778.6 426.2,778.6 426.2,795.8 419.6,789.2 415.8,793 
		426.2,803.4 426.2,842.8 435.5,842.8 435.5,804.2 	"/>
</g>
<g>
	<circle fill="#36B577" cx="1140.7" cy="769.9" r="35.1"/>
	<polygon fill="#F7B519" points="1160.1,781.4 1155.4,776.7 1146.3,785.8 1146.3,763.6 1134.9,763.6 1134.9,784.8 1126.8,776.7 
		1122.1,781.4 1134.9,794.2 1134.9,842.8 1146.3,842.8 1146.3,795.2 	"/>
	<circle fill="#9CC93C" cx="1099.9" cy="789.4" r="25.7"/>
	<polygon fill="#945D38" points="1114.2,797.8 1110.7,794.4 1104.1,801 1104.1,784.8 1095.7,784.8 1095.7,800.3 1089.7,794.4 
		1086.3,797.8 1095.7,807.2 1095.7,842.8 1104.1,842.8 1104.1,807.9 	"/>
</g>
</svg>
