<?xml version="1.0" encoding="utf-8"?>
<!-- Generator: Adobe Illustrator 18.0.0, SVG Export Plug-In . SVG Version: 6.00 Build 0)  -->
<!DOCTYPE svg PUBLIC "-//W3C//DTD SVG 1.1//EN" "http://www.w3.org/Graphics/SVG/1.1/DTD/svg11.dtd">
<svg version="1.1" id="Camada_1" xmlns="http://www.w3.org/2000/svg" xmlns:xlink="http://www.w3.org/1999/xlink" x="0px" y="0px"
	 viewBox="0 0 1578.3 841.9" enable-background="new 0 0 1578.3 841.9" xml:space="preserve">
<g>
	<rect x="0" y="-1.4" fill="#8F201D" width="1578.3" height="843.2"/>
	<rect x="580.8" y="816.9" fill="#E97567" width="416.7" height="25"/>
	<g>
		<rect x="765.3" y="730.3" fill="#D04431" width="47.7" height="40.4"/>
		<rect x="740.6" y="770.6" fill="#C8422F" width="97.1" height="71.3"/>
		<path fill="#E97567" d="M768.4,357.4h41.4c6.6-5.4,10.7-13.3,10.7-22.1c0-16.2-31.4-55-31.4-55s-31.4,38.8-31.4,55
			C757.7,344.1,761.9,352,768.4,357.4z"/>
		<rect x="787.8" y="268.4" fill="#E97567" width="2.6" height="14.2"/>
		<rect x="765.3" y="750.4" fill="#DE4936" width="47.7" height="19.9"/>
		<rect x="765.3" y="748.5" fill="#EC988F" width="47.7" height="2"/>
		<rect x="765.3" y="730.3" fill="#EC988F" width="47.7" height="2"/>
		<rect x="765.3" y="732.2" fill="#D46A5E" width="47.7" height="2"/>
		<rect x="765.3" y="750.4" fill="#C4402E" width="47.7" height="2"/>
		<rect x="775.8" y="805.1" fill="#EC988F" width="26.7" height="36.8"/>
		<rect x="779" y="807.9" fill="#55110F" width="20.2" height="34"/>
		<rect x="779" y="816.9" fill="#781614" width="20.2" height="25"/>
		<rect x="769.7" y="736.3" fill="#B63B29" width="10.1" height="8.5"/>
		<path fill="#E97567" d="M813,737.9c5.3,3.6,8.5,1.8,11.3,0c2.8-1.8,8.1-2.2,10.1-1.6c0,0,1.6-1.4,4.2-1.2c2.6,0.2,4.7,2.5,4.7,2.5
			l-4.4,2.5l1.8,4.8c-2.8,1.4-5.9-0.4-7.3-2.8c-3.6-1.6-7.5,0.4-9.9,2.4c-2.4,2-6.7,2.2-10.5-0.8V737.9z"/>
		<path fill="#E97567" d="M765.3,737.9c-5.3,3.6-8.5,1.8-11.3,0c-2.8-1.8-8.1-2.2-10.1-1.6c0,0-1.6-1.4-4.2-1.2
			c-2.6,0.2-4.7,2.5-4.7,2.5l4.4,2.5l-1.8,4.8c2.8,1.4,5.9-0.4,7.3-2.8c3.6-1.6,7.5,0.4,9.9,2.4c2.4,2,6.7,2.2,10.5-0.8V737.9z"/>
		<path fill="#E97567" d="M807.1,437.4c5.3,3.6,8.5,1.8,11.3,0c2.8-1.8,8.1-2.2,10.1-1.6c0,0,1.6-1.4,4.2-1.2
			c2.6,0.2,4.7,2.5,4.7,2.5l-4.4,2.5l1.8,4.8c-2.8,1.4-5.9-0.4-7.3-2.8c-3.6-1.6-7.5,0.4-9.9,2.4c-2.4,2-6.7,2.2-10.5-0.8V437.4z"/>
		<path fill="#E97567" d="M771.3,437.4c-5.3,3.6-8.5,1.8-11.3,0c-2.8-1.8-8.1-2.2-10.1-1.6c0,0-1.6-1.4-4.2-1.2
			c-2.6,0.2-4.7,2.5-4.7,2.5l4.4,2.5l-1.8,4.8c2.8,1.4,5.9-0.4,7.3-2.8c3.6-1.6,7.5,0.4,9.9,2.4c2.4,2,6.7,2.2,10.5-0.8V437.4z"/>
		<rect x="771.1" y="431.8" fill="#D04431" width="36" height="16.6"/>
		<rect x="771.1" y="431.8" fill="#BD3E2B" width="36" height="2.8"/>
		<rect x="769.7" y="357.4" fill="#DE4936" width="38.8" height="74.4"/>
		<rect x="769.7" y="448.4" fill="#DE4936" width="38.8" height="281.9"/>
		<path fill="#E97567" d="M804.5,427.7c-3.2,0-8.1-3.6-9.1-9.7c-1-6.1-1.3-14.8-1-16.8c0.4-3.2,1.2-6.1,3-9.1
			c1.8-3,12.1-18.4,12.1-18.4v-16.4h-8.9c0,0-0.4,10.5-0.4,12.7c0,2.2-0.2,3.2-2,6.1s-9.5,15-10.7,17c-1.2,2-2.4,3-4.4,0
			c-2-3-9.5-13.8-9.5-13.8l-0.1-22h-5.4v29.7c0,0,4.9,5.3,6.1,6.7s1.6,3.2,1.6,6.3c0,3,0,9.9,0,11.9c0,2-0.8,3.2-2,4.4
			c-1.2,1.2-5.8,4.7-5.8,4.7l-0.1,10.5h42.3v-8.1C810.1,423.5,807.7,427.7,804.5,427.7z M783.5,419.4c-1.8,0-3.2-3-3.2-6.7
			c0-3.7,1.2-6.7,3.2-6.7s3.2,3,3.2,6.7C786.7,416.4,785.3,419.4,783.5,419.4z"/>
		<path fill="#E97567" d="M810.3,464.2v-13.5H768v33.9c0,0,5.7-11.5,12.6-22.6c10-16,27.4-9.7,22.3,1.9c-5.2,11.8-19.8,25.3-34.9,32
			c0,2.3,0,4.6,0,6.9c4.3-1.2,15.7-7.2,18.1-8.8c-1.8,13.8-18.1,25.7-18.1,31.1c0,15,0,26.3,0,26.3s-0.1,8.5,3,18.6
			c3.1,10.1,4.8,22.8,2.7,33.6c-1.8,9.6-5.7,20.2-5.7,20.2v11.7c3.3-12.5,7.5-20.2,15.9-10.9c7.7,8.6,3.9,21.8-2,32
			c-7.1,12.1-13.8,19.5-13.8,19.5v43.7c0,0,1.2,3,4.9,6.6c5.1,5.1,10.4,3.9,14.8,3.8c4.1-0.1,18.2,0,18.2,0s4.5-4.9,4.5-12.5
			s0-67,0-76.3c0,0-5.2,4.7-10.9,7.1c-3.7,1.6-4.1,1.2-3.1-4.3c0.9-5.3,2.8-13.6,5.2-18.5c2.8-5.8,8.8-16.5,8.8-16.5s0-7.1,0-10.3
			c-2.3,2.6-11,16.6-13.6,20.4c-2.7,4-4.3,3.8-9-3.6c-2.9-4.6-5.5-13.4-5.7-17.8c-0.3-6.3,1.8-11.8,3.5-13.5
			c6-5.7,15.8-10,24.7-11.9v-6.5c-8.6,1.7-17.3,5.5-27.1,13.1c-2.7,2.1-3.5,1.3-1.9-3.8c5.5-17.3,16.1-24.2,29-24c0,0,0-33.2,0-38.4
			c0,0-9.4-2.8-13-8.5c-3.7-5.7-4.5-15-2-19C797.7,481.5,804.7,470.7,810.3,464.2z M805.4,722.4c-1.1,2.1-2.2,3.4-4.1,4.3h-20.1
			c-3.6-0.9-6.2-3.7-7.5-6.1c-1.2-2.2-0.2-2.8,2.8-1.1c6.8,3.9,18.2,6.4,26.5,1.8C806.6,719.4,806.3,720.7,805.4,722.4z
			 M808.2,710.6c0,2.6-2.1,4.5-5.3,6c-5.6,2.6-20.2,3.3-25.4-0.4c-5.3-3.8-6.9-7.9-2.1-11.2c9-6.1,17-13.9,25.9-24.1
			c3.5-4,6.9-6.9,6.9-1.8C808.2,684.2,808.2,708,808.2,710.6z M808.2,649v13.5c-7.2,11.1-26.5,29.9-38.4,38.7v-18.5
			C776.4,670.4,791.4,657.3,808.2,649z M801.6,517.5c3.5,3,5.3,4.3,5.3,4.3s0,12.2,0,14.4c0,0-2.6,1.4-6.4,4.2
			c-11.1,8.2-18.3,19.1-20.4,24.8c-2.4,6.7-4.5,7.1-6,2.2c-1.7-5.8-9.2-32.1,1.4-44.5C786.1,510.5,798.1,514.6,801.6,517.5z"/>
		<rect x="766.1" y="448.4" fill="#EC988F" width="46.1" height="2.4"/>
		<rect x="767.7" y="450.8" fill="#CE675B" width="42.6" height="1.2"/>
		<rect x="766.1" y="429.3" fill="#EC988F" width="46.1" height="2.4"/>
		<rect x="784.9" y="740.7" fill="#C4402E" width="8.5" height="7.7"/>
		<rect x="784.9" y="750.4" fill="#C4402E" width="8.5" height="19.9"/>
		<rect x="784.9" y="440.1" fill="#BD3E2B" width="8.5" height="8.3"/>
		<circle fill="#E97567" cx="789.1" cy="440.1" r="4.2"/>
		<path fill="#CE685C" d="M789.1,435.8c-2.3,0-4.2,1.9-4.2,4.2h8.5C793.4,437.7,791.5,435.8,789.1,435.8z"/>
		<circle fill="#E97567" cx="789.1" cy="740.7" r="4.2"/>
		<path fill="#BE5F54" d="M789.1,736.5c-2.3,0-4.2,1.9-4.2,4.2h8.5C793.4,738.4,791.5,736.5,789.1,736.5z"/>
		<polygon fill="#C4402E" points="800.6,357.4 773.5,357.4 773.5,362 800.5,362 		"/>
		<rect x="768.1" y="357.4" fill="#D1695D" width="5.4" height="4.7"/>
		<polygon fill="#D1695D" points="800.6,357.4 809.5,357.4 809.5,362 800.5,362 		"/>
	</g>
	<g>
		<g>
			<rect x="885.3" y="792.7" fill="#DE4936" width="5.4" height="24.2"/>
			<path fill="#E97567" d="M883.8,803c0-4.3,1.4-16.9,4.1-16.9s4.1,12.4,4.1,16.9C892.1,807.5,883.8,807.3,883.8,803z"/>
			<path fill="#C4402E" d="M885.3,805.5v3c1.5,1,3.9,1,5.4,0v-3C889.1,806.5,886.8,806.5,885.3,805.5z"/>
		</g>
		<g>
			<rect x="938.2" y="792.7" fill="#DE4936" width="5.4" height="24.2"/>
			<path fill="#E97567" d="M936.8,803c0-4.3,1.4-16.9,4.1-16.9s4.1,12.4,4.1,16.9C945.1,807.5,936.8,807.3,936.8,803z"/>
			<path fill="#C4402E" d="M938.2,805.5v3c1.5,1,3.9,1,5.4,0v-3C942.1,806.5,939.7,806.5,938.2,805.5z"/>
		</g>
	</g>
	<g>
		<g>
			<path fill="#E97567" d="M685.6,793.9c-2.4,0.1-1.2-2.7-0.3-4.9c0.6-1.6,0.5-3-0.6-3.4c-1.2-0.5-1.3-2.5,0.2-2.4
				c2.9,0.3,4.5,3.9,1.9,7.4C686.5,791.6,685.6,793.9,685.6,793.9z"/>
			<path fill="#DE4936" d="M685,816.9h5.2c0-0.4-0.1-0.8-0.3-1.2c-2-3.4-1-6.1,0.2-9.6c1.4-3.9,3.1-8.7-0.2-14.5
				c-0.7-1.2-2.1-1.6-3.3-0.9c-1.2,0.7-1.6,2.1-0.9,3.3c2.2,4,1.2,6.9-0.1,10.5C684.1,808,682.7,812,685,816.9z"/>
		</g>
		<g>
			<path fill="#E97567" d="M633.9,793.9c-2.4,0.1-1.2-2.7-0.3-4.9c0.6-1.6,0.5-3-0.6-3.4c-1.2-0.5-1.3-2.5,0.2-2.4
				c2.9,0.3,4.5,3.9,1.9,7.4C634.8,791.6,633.9,793.9,633.9,793.9z"/>
			<path fill="#DE4936" d="M633.3,816.9h5.2c0-0.4-0.1-0.8-0.3-1.2c-2-3.4-1-6.1,0.2-9.6c1.4-3.9,3.1-8.7-0.2-14.5
				c-0.7-1.2-2.1-1.6-3.3-0.9c-1.2,0.7-1.6,2.1-0.9,3.3c2.2,4,1.2,6.9-0.1,10.5C632.4,808,631,812,633.3,816.9z"/>
		</g>
	</g>
</g>
</svg>
