<?xml version="1.0" encoding="utf-8"?>
<!-- Generator: Adobe Illustrator 18.0.0, SVG Export Plug-In . SVG Version: 6.00 Build 0)  -->
<!DOCTYPE svg PUBLIC "-//W3C//DTD SVG 1.1//EN" "http://www.w3.org/Graphics/SVG/1.1/DTD/svg11.dtd">
<svg version="1.1" id="Camada_1" xmlns="http://www.w3.org/2000/svg" xmlns:xlink="http://www.w3.org/1999/xlink" x="0px" y="0px"
	 viewBox="0 0 1578.3 841.9" enable-background="new 0 0 1578.3 841.9" xml:space="preserve">
<g>
	<rect x="-0.5" y="0" fill="#0F4C9B" width="1578.3" height="841.9"/>
	<g>
		<rect x="1.6" y="677.3" fill="#9BC5E9" width="99.3" height="164"/>
		<rect x="6.9" y="683.8" fill="#5C8CC9" width="88.7" height="35.6"/>
		<rect x="6.9" y="725" fill="#5C8CC9" width="88.7" height="71.2"/>
		<rect x="1.6" y="677.3" fill="#BBDEF5" width="99.3" height="6.4"/>
		<rect x="6.9" y="683.8" fill="#067BC0" width="88.7" height="4.9"/>
		<rect x="1.6" y="683.8" fill="#82A6C5" width="5.3" height="4.9"/>
		<rect x="95.5" y="683.8" fill="#82A6C5" width="5.3" height="4.9"/>
		<rect x="100.8" y="649.3" fill="#D1D6EB" width="90.9" height="192.1"/>
		<rect x="191.7" y="608.7" fill="#19467D" width="90.9" height="232.6"/>
		<rect x="191.7" y="810.6" fill="#1B3A69" width="90.9" height="30.8"/>
		<rect x="282.7" y="658" fill="#5C8CC9" width="164.8" height="183.4"/>
		<rect x="282.7" y="817.8" fill="#357AB7" width="164.8" height="23.5"/>
		<rect x="447.5" y="698.9" fill="#68A8DC" width="277.3" height="142.5"/>
		<rect x="447.5" y="698.9" fill="#4792CF" width="277.3" height="62.6"/>
		<rect x="724.8" y="688.3" fill="#19467D" width="242.1" height="153.1"/>
		<rect x="966.9" y="682.6" fill="#5C8CC9" width="125" height="158.7"/>
		<rect x="1091.9" y="682.6" fill="#68A8DC" width="111.4" height="158.7"/>
		<rect x="1203.3" y="682.6" fill="#19467D" width="144" height="158.7"/>
		<rect x="1347.3" y="620.5" fill="#9BC5E9" width="119" height="220.9"/>
		<rect x="1466.2" y="620.5" fill="#68A8DC" width="112.1" height="220.9"/>
		<rect x="23.1" y="692.1" fill="#0263A0" width="11.7" height="18.6"/>
		<g>
			<rect x="7.2" y="812.6" fill="#0263A0" width="37.9" height="28.8"/>
			<rect x="57.2" y="812.6" fill="#0263A0" width="37.9" height="28.8"/>
		</g>
		<g>
			<rect x="7.2" y="812.6" fill="#014E80" width="37.9" height="5.3"/>
			<rect x="57.2" y="812.6" fill="#014E80" width="37.9" height="5.3"/>
		</g>
		<rect x="10.3" y="731.4" fill="#0263A0" width="16.3" height="26.2"/>
		<rect x="10.3" y="731.4" fill="#014E80" width="16.3" height="7.9"/>
		<rect x="32.1" y="731.4" fill="#0263A0" width="16.3" height="26.2"/>
		<rect x="32.1" y="731.4" fill="#014E80" width="16.3" height="7.9"/>
		<rect x="54" y="731.4" fill="#0263A0" width="16.3" height="26.2"/>
		<rect x="54" y="731.4" fill="#014E80" width="16.3" height="7.9"/>
		<rect x="75.8" y="731.4" fill="#0263A0" width="16.3" height="26.2"/>
		<rect x="75.8" y="731.4" fill="#014E80" width="16.3" height="7.9"/>
		<rect x="10.3" y="763.7" fill="#0263A0" width="16.3" height="26.2"/>
		<rect x="10.3" y="763.7" fill="#014E80" width="16.3" height="7.9"/>
		<rect x="32.1" y="763.7" fill="#0263A0" width="16.3" height="26.2"/>
		<rect x="32.1" y="763.7" fill="#014E80" width="16.3" height="7.9"/>
		<rect x="54" y="763.7" fill="#0263A0" width="16.3" height="26.2"/>
		<rect x="54" y="763.7" fill="#014E80" width="16.3" height="7.9"/>
		<rect x="75.8" y="763.7" fill="#0263A0" width="16.3" height="26.2"/>
		<rect x="75.8" y="763.7" fill="#014E80" width="16.3" height="7.9"/>
		<g>
			<rect x="10.3" y="799.7" fill="#0263A0" width="16.3" height="7.9"/>
			<rect x="32.1" y="799.7" fill="#0263A0" width="16.3" height="7.9"/>
			<rect x="54" y="799.7" fill="#0263A0" width="16.3" height="7.9"/>
			<rect x="75.8" y="799.7" fill="#0263A0" width="16.3" height="7.9"/>
		</g>
		<rect x="67.3" y="692.1" fill="#0263A0" width="11.7" height="18.6"/>
		<rect x="100.4" y="778.5" fill="#B8CEEA" width="91.3" height="5.3"/>
		<rect x="105.2" y="653.9" fill="#68A8DC" width="81.8" height="124.2"/>
		<rect x="105.2" y="783.8" fill="#68A8DC" width="81.8" height="57.6"/>
		<rect x="191.5" y="778.5" fill="#077BB8" width="91.3" height="5.3"/>
		<rect x="191.5" y="783.8" fill="#194172" width="91.3" height="5.3"/>
		<rect x="202.3" y="623.5" fill="#203568" width="13.6" height="152.9"/>
		<rect x="202.3" y="623.5" fill="#122C50" width="13.6" height="28.8"/>
		
			<rect x="199.7" y="652" transform="matrix(1 1.733907e-03 -1.733907e-03 1 1.1359 -0.3618)" fill="#077BB8" width="18.9" height="6"/>
		<rect x="232.3" y="623.5" fill="#203568" width="13.6" height="152.9"/>
		<rect x="191.7" y="828.9" fill="#071D3C" width="90.9" height="12.5"/>
		<rect x="105.2" y="819" fill="#4792CF" width="81.8" height="22.4"/>
		<rect x="259.7" y="623.5" fill="#203568" width="13.6" height="152.9"/>
		<rect x="109.7" y="799.7" fill="#2F7299" width="48.3" height="41.7"/>
		<rect x="109.7" y="799.7" fill="#265F7F" width="48.3" height="5.7"/>
		<rect x="169.2" y="803.7" fill="#2F7299" width="13.6" height="37.7"/>
		<rect x="191.7" y="583.2" fill="#19467D" width="11.7" height="25.6"/>
		<rect x="270.9" y="583.2" fill="#19467D" width="11.7" height="25.6"/>
		<path fill="#203568" d="M237.2,581.5c-14.3,0-26.7,6.2-33.7,15.5v11.8h67.4V597C263.9,587.7,251.5,581.5,237.2,581.5z"/>
		<rect x="213.5" y="575.8" fill="#19467D" width="47.4" height="5.7"/>
		<rect x="289.7" y="717.1" fill="#9BC5E9" width="152.9" height="4"/>
		<rect x="289.7" y="721" fill="#067BC0" width="152.9" height="4"/>
		<rect x="295.5" y="680.5" fill="#0263A0" width="15.6" height="36.5"/>
		<rect x="326.9" y="680.5" fill="#0263A0" width="15.6" height="36.5"/>
		<rect x="282.9" y="644" fill="#9BC5E9" width="171.2" height="14"/>
		<rect x="282.9" y="658" fill="#3A82BD" width="164.6" height="4.7"/>
		<rect x="282.9" y="608.7" fill="#769DD2" width="164.6" height="35.2"/>
		<rect x="358.2" y="680.5" fill="#0263A0" width="15.6" height="36.5"/>
		<rect x="389.6" y="680.5" fill="#0263A0" width="15.6" height="36.5"/>
		<rect x="420.9" y="680.5" fill="#0263A0" width="15.6" height="36.5"/>
		<rect x="295.5" y="741.6" fill="#0263A0" width="15.6" height="37.6"/>
		<rect x="295.5" y="803.7" fill="#0263A0" width="15.6" height="26.5"/>
		<rect x="325.3" y="803.7" fill="#0263A0" width="15.6" height="26.5"/>
		<rect x="389.6" y="803.7" fill="#0263A0" width="15.6" height="26.5"/>
		<rect x="420.9" y="803.7" fill="#0263A0" width="15.6" height="26.5"/>
		<rect x="326.9" y="741.6" fill="#0263A0" width="15.6" height="37.6"/>
		<rect x="358.2" y="741.6" fill="#0263A0" width="15.6" height="37.6"/>
		<rect x="358.2" y="803.7" fill="#0263A0" width="15.6" height="37.6"/>
		<rect x="389.6" y="741.6" fill="#0263A0" width="15.6" height="37.6"/>
		<rect x="420.9" y="741.6" fill="#0263A0" width="15.6" height="37.6"/>
		<rect x="510" y="727.3" fill="#2F7299" width="14.4" height="50.8"/>
		<rect x="544.2" y="727.3" fill="#2F7299" width="14.4" height="50.8"/>
		<rect x="578.9" y="727.3" fill="#2F7299" width="14.4" height="50.8"/>
		<rect x="613.2" y="727.3" fill="#2F7299" width="14.4" height="50.8"/>
		<rect x="646.6" y="727.3" fill="#2F7299" width="14.4" height="50.8"/>
		<g>
			<rect x="684.3" y="727.3" fill="#2F7299" width="12.5" height="50.8"/>
			<rect x="475.1" y="727.3" fill="#2F7299" width="12.5" height="50.8"/>
			<rect x="456.6" y="727.3" fill="#2F7299" width="12.5" height="50.8"/>
			<rect x="703.2" y="727.3" fill="#2F7299" width="12.5" height="50.8"/>
		</g>
		<path fill="#2F7299" d="M550.5,794.9c-4,0-7.2,3.2-7.2,7.2v28h14.4v-28C557.7,798.2,554.5,794.9,550.5,794.9z"/>
		<path fill="#2F7299" d="M517.2,794.9c-4,0-7.2,3.2-7.2,7.2v28h14.4v-28C524.4,798.2,521.2,794.9,517.2,794.9z"/>
		<path fill="#2F7299" d="M472.5,794.9c-7.3,0-13.3,3.2-13.3,7.2v28h26.5v-28C485.7,798.2,479.8,794.9,472.5,794.9z"/>
		<path fill="#2F7299" d="M700.2,794.9c-7.3,0-13.3,3.2-13.3,7.2v28h26.5v-28C713.4,798.2,707.5,794.9,700.2,794.9z"/>
		<path fill="#2F7299" d="M654.7,794.9c-4,0-7.2,3.2-7.2,7.2v28h14.4v-28C661.9,798.2,658.7,794.9,654.7,794.9z"/>
		<path fill="#2F7299" d="M621.4,794.9c-4,0-7.2,3.2-7.2,7.2v28h14.4v-28C628.6,798.2,625.3,794.9,621.4,794.9z"/>
		<rect x="447.5" y="778.4" fill="#B8CEEA" width="277.3" height="5.4"/>
		<rect x="1018.2" y="727.9" fill="#0263A0" width="22.4" height="42.5"/>
		<rect x="1013.8" y="769.3" fill="#9BC5E9" width="31.1" height="5.3"/>
		<rect x="977.9" y="727.9" fill="#0263A0" width="22.4" height="42.5"/>
		<rect x="973.6" y="769.3" fill="#9BC5E9" width="31.1" height="5.3"/>
		<rect x="973.6" y="774.4" fill="#067BC0" width="31.1" height="5.8"/>
		<rect x="1013.8" y="774.4" fill="#067BC0" width="31.1" height="5.8"/>
		<rect x="1054.1" y="774.4" fill="#067BC0" width="31.1" height="5.8"/>
		<rect x="1058.4" y="727.9" fill="#0263A0" width="22.4" height="42.5"/>
		<rect x="1054.1" y="769.3" fill="#9BC5E9" width="31.1" height="5.3"/>
		<rect x="565.9" y="805" fill="#2F7299" width="4.9" height="11.2"/>
		<rect x="600.5" y="805" fill="#2F7299" width="4.9" height="11.2"/>
		<rect x="447.5" y="688.3" fill="#8EC1E8" width="277.3" height="10.6"/>
		<rect x="447.5" y="830.7" fill="#B8CEEA" width="277.3" height="3.4"/>
		<rect x="447.5" y="802" fill="#2F7299" width="277.3" height="3.4"/>
		<rect x="497.9" y="721.1" fill="#B8CEEA" width="3.5" height="80.9"/>
		<rect x="532.7" y="721.1" fill="#B8CEEA" width="3.7" height="80.9"/>
		<rect x="566.6" y="721.1" fill="#B8CEEA" width="3.4" height="80.9"/>
		<rect x="602" y="721.1" fill="#B8CEEA" width="3.4" height="80.9"/>
		<rect x="635.6" y="721.1" fill="#B8CEEA" width="3.5" height="80.9"/>
		<rect x="669.1" y="721.1" fill="#B8CEEA" width="3.9" height="80.9"/>
		<rect x="447.5" y="698.8" fill="#4181B6" width="277.3" height="22.3"/>
		<rect x="447.5" y="698.8" fill="#B8CEEA" width="277.3" height="10"/>
		<rect x="724.8" y="688.3" fill="#077BB8" width="242.1" height="14.4"/>
		<rect x="724.8" y="702.7" fill="#203568" width="242.1" height="7.2"/>
		<rect x="775.2" y="688.3" fill="#0463A6" width="3.8" height="14.4"/>
		<rect x="843.9" y="688.3" fill="#0463A6" width="3.8" height="14.4"/>
		<rect x="912.3" y="688.3" fill="#0463A6" width="3.8" height="14.4"/>
		<rect x="724.8" y="727.3" fill="#203568" width="242.1" height="5.3"/>
		<path fill="#122C50" d="M743.4,724.3c-6.9,0-12.5,3.7-12.5,8.3v44.7h24.9v-44.7C755.9,728,750.3,724.3,743.4,724.3z"/>
		<path fill="#122C50" d="M777.9,798.2c-6.9,0-12.5,3.7-12.5,8.3v24.2h24.9v-24.2C790.3,801.9,784.8,798.2,777.9,798.2z"/>
		<path fill="#122C50" d="M745,798.2c-6.9,0-12.5,3.7-12.5,8.3v24.2h24.9v-24.2C757.5,801.9,751.9,798.2,745,798.2z"/>
		<path fill="#122C50" d="M810.8,798.2c-6.9,0-12.5,3.7-12.5,8.3v24.2h24.9v-24.2C823.2,801.9,817.6,798.2,810.8,798.2z"/>
		<path fill="#122C50" d="M845.8,795.3c-8.1,0-14.6,5.3-14.6,11.8v34.2h29.3v-34.2C860.5,800.6,853.9,795.3,845.8,795.3z"/>
		<path fill="#203568" d="M845.8,795.3c-8.1,0-14.6,5.3-14.6,11.8v9.1c0-6.5,6.6-11.8,14.6-11.8c8.1,0,14.6,5.3,14.6,11.8v-9.1
			C860.5,800.6,853.9,795.3,845.8,795.3z"/>
		<path fill="#122C50" d="M916.1,798.2c-6.9,0-12.5,3.7-12.5,8.3v24.2h24.9v-24.2C928.6,801.9,923,798.2,916.1,798.2z"/>
		<g>
			<path fill="#122C50" d="M883.2,798.2c-6.9,0-12.5,3.7-12.5,8.3v24.2h24.9v-24.2C895.7,801.9,890.1,798.2,883.2,798.2z"/>
			<path fill="#122C50" d="M949,798.2c-6.9,0-12.5,3.7-12.5,8.3v24.2h24.9v-24.2C961.4,801.9,955.9,798.2,949,798.2z"/>
		</g>
		<path fill="#2F7299" d="M1115.3,798c-6.2,0-11.3,3.4-11.3,7.6v21.9h22.6v-21.9C1126.6,801.4,1121.5,798,1115.3,798z"/>
		<path fill="#2F7299" d="M1147.9,798c-6.2,0-11.3,3.4-11.3,7.6v21.9h22.6v-21.9C1159.2,801.4,1154.2,798,1147.9,798z"/>
		<path fill="#2F7299" d="M1183.3,798c-6.2,0-11.3,3.4-11.3,7.6v35.5h22.6v-35.5C1194.6,801.4,1189.5,798,1183.3,798z"/>
		<path fill="#5E97C4" d="M1183.3,798c-6.2,0-11.3,3.4-11.3,7.6v7.5c0-4.2,5.1-7.6,11.3-7.6c6.2,0,11.3,3.4,11.3,7.6v-7.5
			C1194.6,801.4,1189.5,798,1183.3,798z"/>
		<path fill="#122C50" d="M777.1,724.3c-6.9,0-12.5,3.7-12.5,8.3v44.7h24.9v-44.7C789.5,728,784,724.3,777.1,724.3z"/>
		<path fill="#122C50" d="M810.8,724.3c-6.9,0-12.5,3.7-12.5,8.3v44.7h24.9v-44.7C823.2,728,817.6,724.3,810.8,724.3z"/>
		<path fill="#122C50" d="M846.7,724.3c-6.9,0-12.5,3.7-12.5,8.3v44.7h24.9v-44.7C859.2,728,853.6,724.3,846.7,724.3z"/>
		<path fill="#122C50" d="M880.4,724.3c-6.9,0-12.5,3.7-12.5,8.3v44.7h24.9v-44.7C892.8,728,887.3,724.3,880.4,724.3z"/>
		<path fill="#122C50" d="M914.1,724.3c-6.9,0-12.5,3.7-12.5,8.3v44.7h24.9v-44.7C926.5,728,920.9,724.3,914.1,724.3z"/>
		<path fill="#122C50" d="M947.7,724.3c-6.9,0-12.5,3.7-12.5,8.3v44.7h24.9v-44.7C960.2,728,954.6,724.3,947.7,724.3z"/>
		<rect x="966.9" y="682.6" fill="#769DD2" width="125" height="20.1"/>
		<rect x="966.9" y="702.7" fill="#3A82BD" width="125" height="10"/>
		<rect x="1091.9" y="702.7" fill="#5E97C4" width="111.4" height="10"/>
		<rect x="1091.9" y="682.6" fill="#8EC1E8" width="111.4" height="20.1"/>
		<path fill="#9BC5E9" d="M1029.4,672.1c-11.1,0-20,8.9-20,19.8v10.7h40.1V692C1049.4,681,1040.5,672.1,1029.4,672.1z"/>
		<polygon fill="#0463A6" points="949,688.3 740.3,688.3 802.7,666.3 888.9,666.3 		"/>
		<rect x="1.6" y="639.8" fill="#769DD2" width="99.3" height="37.5"/>
		<rect x="100.4" y="608.7" fill="#8EC1E8" width="91.1" height="40.5"/>
		<rect x="1097" y="769.3" fill="#B8CEEA" width="101.2" height="5.3"/>
		<rect x="1097" y="774.6" fill="#5E97C4" width="101.2" height="5.3"/>
		<rect x="1103.6" y="727.9" fill="#2F7299" width="23.3" height="41.3"/>
		<rect x="1135.9" y="727.9" fill="#2F7299" width="23.3" height="41.3"/>
		<rect x="1169" y="727.9" fill="#2F7299" width="23.3" height="41.3"/>
		<rect x="1103.6" y="727.9" fill="#B8CEEA" width="23.3" height="9.5"/>
		<rect x="1135.9" y="727.9" fill="#B8CEEA" width="23.3" height="9.5"/>
		<rect x="1169" y="727.9" fill="#B8CEEA" width="23.3" height="9.5"/>
		<rect x="1203.3" y="655.3" fill="#0463A6" width="144" height="27.3"/>
		<rect x="1203.3" y="682.6" fill="#077BB8" width="144" height="14.8"/>
		<path fill="#51A1CE" d="M1289.3,665.1c0,0.1,0,0.2,0,0.3c0,4.4-3.6,8-8,8c-2.5,0-4.7-1.2-6.1-2.9c-1.5,1.8-3.6,2.9-6.1,2.9
			c-4.4,0-8-3.6-8-8c0-0.1,0-0.2,0-0.3c-17.4,4.5-29.9,17.3-29.9,32.3h87.9C1319.2,682.4,1306.7,669.7,1289.3,665.1z"/>
		<rect x="1210.9" y="727.9" fill="#122C50" width="24.2" height="42.5"/>
		<rect x="1354.9" y="648.2" fill="#5C8CC9" width="103.7" height="47.4"/>
		<rect x="1210.9" y="716.7" fill="#077BB8" width="24.2" height="7"/>
		<rect x="1210.9" y="763.4" fill="#077BB8" width="24.2" height="7"/>
		<rect x="1210.9" y="770.4" fill="#203568" width="24.2" height="7"/>
		<rect x="1245.7" y="770.4" fill="#203568" width="24.2" height="7"/>
		<rect x="1280.6" y="770.4" fill="#203568" width="24.2" height="7"/>
		<rect x="1315.4" y="770.4" fill="#203568" width="24.2" height="7"/>
		<rect x="1245.7" y="727.9" fill="#122C50" width="24.2" height="42.5"/>
		<rect x="1245.7" y="798.9" fill="#122C50" width="24.2" height="42.5"/>
		<rect x="1210.9" y="798.9" fill="#122C50" width="24.2" height="42.5"/>
		<rect x="1280.6" y="798.9" fill="#122C50" width="24.2" height="42.5"/>
		<rect x="1315.4" y="798.9" fill="#122C50" width="24.2" height="42.5"/>
		<rect x="1245.7" y="716.7" fill="#077BB8" width="24.2" height="7"/>
		<rect x="1245.7" y="787.2" fill="#077BB8" width="24.2" height="7"/>
		<rect x="1280.6" y="787.2" fill="#077BB8" width="24.2" height="7"/>
		<rect x="1315.4" y="787.2" fill="#077BB8" width="24.2" height="7"/>
		<rect x="1210.9" y="787.2" fill="#077BB8" width="24.2" height="7"/>
		<rect x="1245.7" y="763.4" fill="#077BB8" width="24.2" height="7"/>
		<rect x="1280.6" y="727.9" fill="#122C50" width="24.2" height="42.5"/>
		<rect x="1280.6" y="716.7" fill="#077BB8" width="24.2" height="7"/>
		<rect x="1280.6" y="763.4" fill="#077BB8" width="24.2" height="7"/>
		<rect x="1315.4" y="727.9" fill="#122C50" width="24.2" height="42.5"/>
		<rect x="1315.4" y="716.7" fill="#077BB8" width="24.2" height="7"/>
		<rect x="1315.4" y="763.4" fill="#077BB8" width="24.2" height="7"/>
		<rect x="1347.3" y="573.5" fill="#769DD2" width="119" height="47"/>
		<rect x="1466.2" y="550.4" fill="#8EC1E8" width="112.1" height="70.1"/>
		<rect x="1339.7" y="620.1" fill="#9BC5E9" width="126.5" height="15.9"/>
		<rect x="1347.3" y="636" fill="#88ACCB" width="119" height="8"/>
		<rect x="1466.2" y="620.1" fill="#B8CEEA" width="112.1" height="15.9"/>
		<rect x="1466.2" y="636" fill="#5E97C4" width="112.1" height="8"/>
		<rect x="1358.1" y="625.4" fill="#5C8CC9" width="29.9" height="6.2"/>
		<rect x="1393.3" y="625.4" fill="#5C8CC9" width="29.9" height="6.2"/>
		<rect x="1429" y="625.4" fill="#5C8CC9" width="29.9" height="6.2"/>
		<rect x="1471.9" y="625.4" fill="#68A8DC" width="29.9" height="6.2"/>
		<rect x="1507.1" y="625.4" fill="#68A8DC" width="29.9" height="6.2"/>
		<rect x="1542.7" y="625.4" fill="#68A8DC" width="29.9" height="6.2"/>
		<rect x="1347.3" y="696.1" fill="#C0D1EC" width="119" height="5.2"/>
		<rect x="1347.3" y="701.4" fill="#88ACCB" width="119" height="5.2"/>
		<rect x="1354.9" y="707.2" fill="#5C8CC9" width="103.7" height="133.8"/>
		<rect x="1360" y="773" fill="#9BC5E9" width="93.8" height="5.7"/>
		<rect x="1360" y="778.8" fill="#067BC0" width="93.8" height="5.7"/>
		<rect x="1473.3" y="770.2" fill="#B8CEEA" width="98.1" height="5.7"/>
		<rect x="1473.3" y="775.9" fill="#5E97C4" width="98.1" height="5.7"/>
		<g>
			<g>
				<rect x="1473.3" y="715.2" fill="#B8CEEA" width="28" height="55"/>
				<rect x="1476.5" y="727.9" fill="#2F7299" width="21.5" height="42.2"/>
			</g>
			<g>
				<rect x="1508.1" y="715.2" fill="#B8CEEA" width="28" height="55"/>
				<rect x="1511.3" y="727.9" fill="#2F7299" width="21.5" height="42.2"/>
			</g>
			<g>
				<rect x="1543.3" y="715.2" fill="#B8CEEA" width="28" height="55"/>
				<rect x="1546.6" y="727.9" fill="#2F7299" width="21.5" height="42.2"/>
			</g>
		</g>
		<g>
			<g>
				<rect x="1473.3" y="652.8" fill="#B8CEEA" width="28" height="43.6"/>
				<rect x="1476.5" y="665.5" fill="#2F7299" width="21.5" height="30.8"/>
			</g>
			<g>
				<rect x="1508.1" y="652.8" fill="#B8CEEA" width="28" height="43.6"/>
				<rect x="1511.3" y="665.5" fill="#2F7299" width="21.5" height="30.8"/>
			</g>
			<g>
				<rect x="1543.3" y="652.8" fill="#B8CEEA" width="28" height="43.6"/>
				<rect x="1546.6" y="665.5" fill="#2F7299" width="21.5" height="30.8"/>
			</g>
		</g>
		<g>
			<g>
				<rect x="1473.3" y="798.3" fill="#B8CEEA" width="28" height="43.6"/>
				<rect x="1476.5" y="811.1" fill="#2F7299" width="21.5" height="30.8"/>
			</g>
			<g>
				<rect x="1508.1" y="798.3" fill="#B8CEEA" width="28" height="43.6"/>
				<rect x="1511.3" y="811.1" fill="#2F7299" width="21.5" height="30.8"/>
			</g>
			<g>
				<rect x="1543.3" y="798.3" fill="#B8CEEA" width="28" height="43.6"/>
				<rect x="1546.6" y="811.1" fill="#2F7299" width="21.5" height="30.8"/>
			</g>
		</g>
		<g>
			<rect x="109.7" y="680.5" fill="#2F7299" width="13.6" height="28.2"/>
			<rect x="138.9" y="680.5" fill="#2F7299" width="13.6" height="28.2"/>
			<rect x="169.2" y="680.5" fill="#2F7299" width="13.6" height="28.2"/>
		</g>
		<g>
			<rect x="109.7" y="743.1" fill="#2F7299" width="13.6" height="35"/>
			<rect x="138.9" y="743.1" fill="#2F7299" width="13.6" height="35"/>
			<rect x="169.2" y="743.1" fill="#2F7299" width="13.6" height="35"/>
		</g>
		<rect x="105.2" y="783.8" fill="#4181B6" width="81.8" height="5.3"/>
		<rect x="100.8" y="783.8" fill="#B8BDCF" width="4.4" height="5.3"/>
		<rect x="187" y="783.8" fill="#B8BDCF" width="4.4" height="5.3"/>
		<rect x="169.2" y="803.7" fill="#265F7F" width="13.6" height="5.7"/>
		<rect x="232.3" y="623.5" fill="#122C50" width="13.6" height="28.8"/>
		<rect x="259.7" y="623.5" fill="#122C50" width="13.6" height="28.8"/>
		
			<rect x="229.7" y="652" transform="matrix(1 1.733907e-03 -1.733907e-03 1 1.1361 -0.4137)" fill="#077BB8" width="18.9" height="6"/>
		
			<rect x="257.1" y="652.1" transform="matrix(1 1.733907e-03 -1.733907e-03 1 1.1362 -0.4613)" fill="#077BB8" width="18.9" height="6"/>
		<rect x="202.3" y="680.5" fill="#122C50" width="13.6" height="38.8"/>
		<rect x="232.3" y="680.5" fill="#122C50" width="13.6" height="38.8"/>
		<rect x="259.7" y="680.5" fill="#122C50" width="13.6" height="38.8"/>
		
			<rect x="199.6" y="719" transform="matrix(1 1.733907e-03 -1.733907e-03 1 1.2522 -0.3615)" fill="#077BB8" width="18.9" height="6"/>
		
			<rect x="257" y="719.1" transform="matrix(1 1.733907e-03 -1.733907e-03 1 1.2525 -0.461)" fill="#077BB8" width="18.9" height="6"/>
		
			<rect x="229.6" y="719.1" transform="matrix(1 1.733907e-03 -1.733907e-03 1 1.2524 -0.4134)" fill="#077BB8" width="18.9" height="6"/>
		<rect x="202.3" y="741.6" fill="#122C50" width="13.6" height="26.1"/>
		<rect x="232.3" y="741.6" fill="#122C50" width="13.6" height="26.1"/>
		<rect x="259.7" y="741.6" fill="#122C50" width="13.6" height="26.1"/>
		
			<rect x="199.5" y="767.1" transform="matrix(1 1.733907e-03 -1.733907e-03 1 1.3356 -0.3613)" fill="#077BB8" width="18.9" height="6"/>
		
			<rect x="229.5" y="767.2" transform="matrix(1 1.733907e-03 -1.733907e-03 1 1.3357 -0.4131)" fill="#077BB8" width="18.9" height="6"/>
		
			<rect x="256.9" y="767.2" transform="matrix(1 1.733907e-03 -1.733907e-03 1 1.3358 -0.4608)" fill="#077BB8" width="18.9" height="6"/>
		<path fill="#077BB8" d="M262.8,608.8c-3-9.3-13.2-16.2-25.4-16.2c-12.2,0-22.5,6.8-25.5,16.2L262.8,608.8z"/>
		<rect x="259.7" y="799.7" fill="#122C50" width="13.6" height="41.7"/>
		<rect x="230.4" y="799.7" fill="#122C50" width="13.6" height="25.4"/>
		<rect x="202.3" y="799.7" fill="#122C50" width="13.6" height="25.4"/>
		<rect x="282.9" y="778.5" fill="#9BC5E9" width="164.6" height="5.3"/>
		<rect x="282.9" y="783.8" fill="#067BC0" width="164.6" height="5.3"/>
		<rect x="286.2" y="646.8" fill="#769DD2" width="7.1" height="8.2"/>
		<rect x="295.5" y="646.8" fill="#769DD2" width="7.1" height="8.2"/>
		<rect x="304.9" y="646.8" fill="#769DD2" width="7.1" height="8.2"/>
		<rect x="314.3" y="646.8" fill="#769DD2" width="7.1" height="8.2"/>
		<rect x="323.7" y="646.8" fill="#769DD2" width="7.1" height="8.2"/>
		<rect x="333.1" y="646.8" fill="#769DD2" width="7.1" height="8.2"/>
		<rect x="342.4" y="646.8" fill="#769DD2" width="7.1" height="8.2"/>
		<rect x="351.8" y="646.8" fill="#A4C358" width="7.1" height="8.2"/>
		<rect x="361.2" y="646.8" fill="#A4C358" width="7.1" height="8.2"/>
		<rect x="370.6" y="646.8" fill="#A4C358" width="7.1" height="8.2"/>
		<rect x="379.9" y="646.8" fill="#769DD2" width="7.1" height="8.2"/>
		<rect x="389.3" y="646.8" fill="#769DD2" width="7.1" height="8.2"/>
		<rect x="398.7" y="646.8" fill="#769DD2" width="7.1" height="8.2"/>
		<rect x="408.1" y="646.8" fill="#769DD2" width="7.1" height="8.2"/>
		<rect x="417.4" y="646.8" fill="#769DD2" width="7.1" height="8.2"/>
		<rect x="426.8" y="646.8" fill="#769DD2" width="7.1" height="8.2"/>
		<rect x="436.2" y="646.8" fill="#769DD2" width="7.1" height="8.2"/>
		<path fill="#9BC5E9" d="M380,637.9c0-8.4-6.8-15.3-15.3-15.3s-15.3,6.8-15.3,15.3c0,0.6,0.1,1.3,0.1,1.9h-0.1V658H380v-18.2h-0.1
			C380,639.2,380,638.6,380,637.9z"/>
		<polygon fill="#68A8DC" points="491.7,698.9 586.1,644 680.5,698.9 		"/>
		<polygon fill="#4792CF" points="586,651.9 652.8,698.9 680.2,698.9 586,645.1 491.7,698.9 519.1,698.9 		"/>
		<rect x="578" y="674.7" fill="#2F7299" width="16.3" height="13.6"/>
		<path fill="#2F7299" d="M586.1,791c-4,0-7.2,3.2-7.2,7.2v43.2h14.4v-43.2C593.3,794.2,590.1,791,586.1,791z"/>
		<rect x="730.9" y="773.1" fill="#077BB8" width="24.9" height="4.2"/>
		<rect x="764.6" y="773.1" fill="#077BB8" width="24.9" height="4.2"/>
		<rect x="798.3" y="773.1" fill="#077BB8" width="24.9" height="4.2"/>
		<rect x="834.2" y="773.1" fill="#077BB8" width="24.9" height="4.2"/>
		<rect x="867.9" y="773.1" fill="#077BB8" width="24.9" height="4.2"/>
		<rect x="901.6" y="773.1" fill="#077BB8" width="24.9" height="4.2"/>
		<rect x="935.3" y="773.1" fill="#077BB8" width="24.9" height="4.2"/>
		<rect x="730.9" y="777.3" fill="#203568" width="24.9" height="9.8"/>
		<rect x="764.6" y="777.3" fill="#203568" width="24.9" height="9.8"/>
		<rect x="798.3" y="777.3" fill="#203568" width="24.9" height="9.8"/>
		<rect x="834.2" y="777.3" fill="#203568" width="24.9" height="9.8"/>
		<rect x="867.9" y="777.3" fill="#203568" width="24.9" height="9.8"/>
		<rect x="901.6" y="777.3" fill="#203568" width="24.9" height="9.8"/>
		<rect x="935.3" y="777.3" fill="#203568" width="24.9" height="9.8"/>
		<rect x="1018.2" y="796.8" fill="#0263A0" width="22.4" height="44.6"/>
		<rect x="1060.4" y="796.8" fill="#0263A0" width="22.4" height="44.6"/>
		<rect x="977.9" y="796.5" fill="#0263A0" width="22.4" height="30.5"/>
		<rect x="973.6" y="791.6" fill="#9BC5E9" width="31.1" height="5.3"/>
		<rect x="1056" y="791.6" fill="#9BC5E9" width="31.1" height="5.3"/>
		<rect x="1013.8" y="791.6" fill="#9BC5E9" width="31.1" height="5.3"/>
		<rect x="966.9" y="698.7" fill="#9BC5E9" width="125" height="5.3"/>
		<rect x="1091.9" y="698.7" fill="#B8CEEA" width="111.4" height="5.3"/>
		<rect x="1203.3" y="696.6" fill="#203568" width="144" height="7.4"/>
		<g>
			<path fill="#0263A0" d="M1371.3,657.8c-6.2,0-11.3,3.4-11.3,7.6V690h22.6v-24.6C1382.6,661.2,1377.5,657.8,1371.3,657.8z"/>
			<path fill="#0263A0" d="M1406.5,657.8c-6.2,0-11.3,3.4-11.3,7.6V690h22.6v-24.6C1417.8,661.2,1412.8,657.8,1406.5,657.8z"/>
			<path fill="#0263A0" d="M1442.2,657.8c-6.2,0-11.3,3.4-11.3,7.6V690h22.6v-24.6C1453.5,661.2,1448.4,657.8,1442.2,657.8z"/>
		</g>
		<g>
			<path fill="#0263A0" d="M1371.3,795.1c-6.2,0-11.3,3.4-11.3,7.6v38.7h22.6v-38.7C1382.6,798.5,1377.5,795.1,1371.3,795.1z"/>
			<path fill="#0263A0" d="M1406.5,795.1c-6.2,0-11.3,3.4-11.3,7.6v38.7h22.6v-38.7C1417.8,798.5,1412.8,795.1,1406.5,795.1z"/>
			<path fill="#0263A0" d="M1442.2,795.1c-6.2,0-11.3,3.4-11.3,7.6v38.7h22.6v-38.7C1453.5,798.5,1448.4,795.1,1442.2,795.1z"/>
		</g>
		<g>
			<path fill="#0263A0" d="M1371.3,719.6c-6.2,0-11.3,3.4-11.3,7.6V773h22.6v-45.9C1382.6,723,1377.5,719.6,1371.3,719.6z"/>
			<path fill="#0263A0" d="M1406.5,719.6c-6.2,0-11.3,3.4-11.3,7.6V773h22.6v-45.9C1417.8,723,1412.8,719.6,1406.5,719.6z"/>
			<path fill="#0263A0" d="M1442.2,719.6c-6.2,0-11.3,3.4-11.3,7.6V773h22.6v-45.9C1453.5,723,1448.4,719.6,1442.2,719.6z"/>
		</g>
		<polygon fill="#9BC5E9" points="1373.1,631.5 1363.2,628.4 1373.1,625.4 1383,628.4 		"/>
		<polygon fill="#9BC5E9" points="1408.3,631.5 1398.4,628.4 1408.3,625.4 1418.2,628.4 		"/>
		<polygon fill="#9BC5E9" points="1443.9,631.5 1434,628.4 1443.9,625.4 1453.8,628.4 		"/>
		<polygon fill="#B8CEEA" points="1486.9,631.5 1476.9,628.4 1486.9,625.4 1496.8,628.4 		"/>
		<polygon fill="#B8CEEA" points="1522.1,631.5 1512.2,628.4 1522.1,625.4 1532,628.4 		"/>
		<polygon fill="#B8CEEA" points="1557.7,631.5 1547.8,628.4 1557.7,625.4 1567.6,628.4 		"/>
	</g>
	<g>
		<circle fill="#36B577" cx="326.8" cy="768" r="35.1"/>
		<polygon fill="#F7B519" points="346.2,779.5 341.5,774.8 332.4,783.9 332.4,761.7 321,761.7 321,782.9 312.9,774.8 308.2,779.5 
			321,792.3 321,840.9 332.4,840.9 332.4,793.3 		"/>
		<circle fill="#9CC93C" cx="286" cy="787.5" r="25.7"/>
		<polygon fill="#945D38" points="300.3,795.9 296.8,792.5 290.1,799.2 290.1,782.9 281.8,782.9 281.8,798.4 275.8,792.5 
			272.4,795.9 281.8,805.3 281.8,840.9 290.1,840.9 290.1,806 		"/>
	</g>
	<g>
		<circle fill="#36B577" cx="1324" cy="768" r="35.1"/>
		<polygon fill="#F7B519" points="1304.6,779.5 1309.2,774.8 1318.4,783.9 1318.4,761.7 1329.8,761.7 1329.8,782.9 1337.9,774.8 
			1342.6,779.5 1329.8,792.3 1329.8,840.9 1318.4,840.9 1318.4,793.3 		"/>
		<circle fill="#9CC93C" cx="1364.7" cy="787.5" r="25.7"/>
		<polygon fill="#945D38" points="1350.5,795.9 1354,792.5 1360.6,799.2 1360.6,782.9 1369,782.9 1369,798.4 1375,792.5 
			1378.4,795.9 1369,805.3 1369,840.9 1360.6,840.9 1360.6,806 		"/>
	</g>
	<g>
		<circle fill="#9CC93C" cx="823.9" cy="777.4" r="29.5"/>
		<polygon fill="#945D38" points="840.2,787 836.3,783.1 828.6,790.7 828.6,772.1 819,772.1 819,789.9 812.2,783.1 808.3,787 
			819,797.7 819,838.5 828.6,838.5 828.6,798.6 		"/>
		<circle fill="#36B577" cx="789.7" cy="793.7" r="21.6"/>
		<polygon fill="#FFC538" points="801.6,800.8 798.8,797.9 793.2,803.5 793.2,789.8 786.1,789.8 786.1,802.9 781.1,797.9 
			778.3,800.8 786.1,808.6 786.1,838.5 793.2,838.5 793.2,809.2 		"/>
	</g>
</g>
</svg>
