<?xml version="1.0" encoding="utf-8"?>
<!-- Generator: Adobe Illustrator 18.0.0, SVG Export Plug-In . SVG Version: 6.00 Build 0)  -->
<!DOCTYPE svg PUBLIC "-//W3C//DTD SVG 1.1//EN" "http://www.w3.org/Graphics/SVG/1.1/DTD/svg11.dtd">
<svg version="1.1" id="Camada_1" xmlns="http://www.w3.org/2000/svg" xmlns:xlink="http://www.w3.org/1999/xlink" x="0px" y="0px"
	 viewBox="0 0 1578.3 841.9" enable-background="new 0 0 1578.3 841.9" xml:space="preserve">
<g>
	<rect x="0" y="0" fill="#4B7034" width="1578.3" height="841.9"/>
	<g>
		<polygon fill="#8BB73F" points="1120.8,841.9 1116.4,841.9 1158.1,759.5 1125.5,647 993.8,593.1 893.4,593.1 893.4,589 994.6,589 
			995,589.1 1128.8,644 1162.5,759.9 		"/>
	</g>
	<g>
		<polygon fill="#61923F" points="1053.8,841.9 1049.5,841.9 1080.9,750.2 1077.3,685.8 998.3,619.2 892.9,593 893.9,589.1 
			1000.2,615.4 1000.5,615.7 1081.3,683.8 1085,750.7 1084.9,751.1 		"/>
	</g>
	<g>
		<polygon fill="#9EC944" points="1242.6,841.9 1180.8,735.3 1081.8,665.6 993.5,607 893.1,593.1 893.6,589 995,603.1 995.4,603.3 
			1084.1,662.2 1183.9,732.5 1247.3,841.9 		"/>
	</g>
	<g>
		<polygon fill="#ACCF60" points="421.7,841.9 396.7,757.7 397.1,757 463.8,625.2 464.3,624.9 557.1,570.2 682.1,588.6 681.5,592.7 
			557.9,574.4 466.9,628.1 401.1,758.1 426.4,841.9 		"/>
	</g>
	<g>
		<polygon fill="#ACCF60" points="1152.8,841.9 1148.6,841.9 1173.6,758.2 1107.9,628.5 1017,574.9 893.7,593.1 893.1,589 
			1017.9,570.6 1018.5,571 1111,625.6 1111.3,626.1 1178,757.9 		"/>
	</g>
	<g>
		<polygon fill="#61923F" points="529.5,841.9 501.4,769.7 501.4,686.1 557.7,636.1 681.1,588.7 682.5,592.6 559.8,639.6 
			505.5,687.9 505.5,769 533.9,841.9 		"/>
	</g>
	<g>
		<polygon fill="#8BB73F" points="487.3,841.9 449.6,750.4 449.9,749.7 479.5,657.6 554.3,593.9 555,593.8 681.7,588.6 681.9,592.7 
			555.9,597.9 483.1,659.9 454,750.2 491.8,841.9 		"/>
	</g>
	<g>
		<polygon fill="#9EC944" points="350.1,841.9 345.2,841.9 405.3,714.1 405.5,713.9 457.9,657.1 554.4,608.8 681.5,588.6 
			682.1,592.7 555.7,612.8 460.4,660.4 408.7,716.4 		"/>
	</g>
	<polygon fill="#8BB73F" points="612.4,509.7 677,594.3 897.9,594.3 962.5,509.7 	"/>
	<g>
		
			<rect x="697.5" y="477" transform="matrix(0.3154 0.949 -0.949 0.3154 957.1213 -369.2741)" fill="#8BB73F" width="74.1" height="3.5"/>
	</g>
	<g>
		<circle fill="#B1D065" cx="722.7" cy="442.4" r="6.4"/>
		<circle fill="#4B7034" cx="722.7" cy="442.4" r="3.8"/>
	</g>
	<g>
		
			<rect x="838.9" y="441.7" transform="matrix(0.9489 0.3155 -0.3155 0.9489 193.7544 -240.7961)" fill="#8BB73F" width="3.4" height="72.7"/>
	</g>
	<polygon fill="#61923F" points="657.7,569.1 581.1,629.8 612,629.8 664.6,578.2 	"/>
	<polygon fill="#8BB73F" points="612,629.8 602.9,661.4 586,677.1 581.1,629.8 	"/>
	<polygon fill="#8BB73F" points="602.9,661.4 744.4,683.2 857.2,740.1 810.1,731.7 784.6,738.9 759.2,726.8 745.6,735.3 
		718.9,726.8 691.4,720.8 696.2,740.1 726.6,751.6 730.1,775.3 760.4,777.7 783.4,793.4 823.4,793.4 863.4,817.7 879.1,800.7 
		900.9,814 882.8,841.9 709.5,820.1 586,677.1 	"/>
	<polygon fill="#61923F" points="911.7,576.2 997.5,545.8 993,528.1 923.4,560.8 	"/>
	<polygon fill="#8BB73F" points="997.5,545.8 1031.4,499.1 1013.3,498.2 993,528.1 	"/>
	<polyline fill="#9EC944" points="1013.3,498.2 967.6,435 954.6,361 983.9,361 976,377.9 983.9,403.4 997.5,419.1 993,439.4 
		1020.9,439.7 1013.6,414.3 1019.6,393.7 1008.7,376.7 1012.2,354.9 989.5,342.8 977.8,319.8 1016.5,327.1 1054.1,364.1 
		1031.4,499.1 	"/>
	<polygon fill="#9EC944" points="626.5,528.1 948.4,528.1 962.5,509.7 612.4,509.7 	"/>
	<g>
		<circle fill="#B1D065" cx="852.1" cy="443" r="6.4"/>
		<circle fill="#4B7034" cx="852.1" cy="443" r="3.8"/>
	</g>
	<polygon opacity="0.3" fill="#61923F" points="848.8,594.3 897.9,594.3 962.5,509.7 797.8,509.7 	"/>
	<polygon opacity="0.3" fill="#61923F" points="1018.3,430.8 1020.9,439.7 993,439.4 997.5,419.1 983.9,403.4 976,377.9 983.9,361 
		954.6,361 967.6,435 1013.3,498.2 1031.4,499.1 1035.5,474.6 	"/>
</g>
</svg>
