<?xml version="1.0" encoding="utf-8"?>
<!-- Generator: Adobe Illustrator 18.0.0, SVG Export Plug-In . SVG Version: 6.00 Build 0)  -->
<!DOCTYPE svg PUBLIC "-//W3C//DTD SVG 1.1//EN" "http://www.w3.org/Graphics/SVG/1.1/DTD/svg11.dtd">
<svg version="1.1" id="Camada_1" xmlns="http://www.w3.org/2000/svg" xmlns:xlink="http://www.w3.org/1999/xlink" x="0px" y="0px"
	 viewBox="0 0 1578.3 841.9" enable-background="new 0 0 1578.3 841.9" xml:space="preserve">
<g>
	<rect x="1.1" y="0" fill="#985023" width="1577.2" height="841.9"/>
	<g>
		<defs>
			<rect id="SVGID_1_" x="0" y="0" width="1578.3" height="841.9"/>
		</defs>
		<clipPath id="SVGID_2_">
			<use xlink:href="#SVGID_1_"  overflow="visible"/>
		</clipPath>
		<polygon clip-path="url(#SVGID_2_)" fill="#C2992D" points="-151.6,491.5 -141.3,479.3 83.2,770.8 72.9,783 		"/>
		<polygon clip-path="url(#SVGID_2_)" fill="#C2992D" points="-34.8,491.5 -24.6,479.3 199.9,770.8 189.6,783 		"/>
		<polygon clip-path="url(#SVGID_2_)" fill="#C2992D" points="81.9,491.5 92.1,479.3 316.6,770.8 306.3,783 		"/>
		<polygon clip-path="url(#SVGID_2_)" fill="#C2992D" points="198.6,491.5 208.9,479.3 433.3,770.8 423.1,783 		"/>
		<polygon clip-path="url(#SVGID_2_)" fill="#C2992D" points="315.3,491.5 325.6,479.3 550,770.8 539.8,783 		"/>
		<polygon clip-path="url(#SVGID_2_)" fill="#C2992D" points="432,491.5 442.3,479.3 666.8,770.8 656.5,783 		"/>
		<polygon clip-path="url(#SVGID_2_)" fill="#C2992D" points="548.8,491.5 559,479.3 783.5,770.8 773.2,783 		"/>
		<polygon clip-path="url(#SVGID_2_)" fill="#C2992D" points="665.5,491.5 675.7,479.3 900.2,770.8 889.9,783 		"/>
		<polygon clip-path="url(#SVGID_2_)" fill="#C2992D" points="782.2,491.5 792.5,479.3 1016.9,770.8 1006.7,783 		"/>
		<polygon clip-path="url(#SVGID_2_)" fill="#C2992D" points="898.9,491.5 909.2,479.3 1133.6,770.8 1123.4,783 		"/>
		<polygon clip-path="url(#SVGID_2_)" fill="#C2992D" points="1015.6,491.5 1025.9,479.3 1250.3,770.8 1240.1,783 		"/>
		<polygon clip-path="url(#SVGID_2_)" fill="#C2992D" points="1132.4,491.5 1142.6,479.3 1367.1,770.8 1356.8,783 		"/>
		<polygon clip-path="url(#SVGID_2_)" fill="#C2992D" points="1249.1,491.5 1259.3,479.3 1483.8,770.8 1473.5,783 		"/>
		<polygon clip-path="url(#SVGID_2_)" fill="#C2992D" points="1365.8,491.5 1376,479.3 1600.5,770.8 1590.3,783 		"/>
		<polygon clip-path="url(#SVGID_2_)" fill="#C2992D" points="1484.5,491.5 1494.7,479.3 1719.2,770.8 1708.9,783 		"/>
		<rect x="-255.7" y="488.2" clip-path="url(#SVGID_2_)" fill="#F7B519" width="1979.1" height="27.7"/>
		<polygon clip-path="url(#SVGID_2_)" fill="#FFF392" points="-146.6,776.9 -156.5,764.1 75.1,489.2 95.7,489.2 		"/>
		<polygon clip-path="url(#SVGID_2_)" fill="#E6C220" points="-148.6,774.3 -154.5,766.7 79.2,489.2 91.6,489.2 		"/>
		<polygon clip-path="url(#SVGID_2_)" fill="#FFF392" points="-29.9,776.9 -39.7,764.1 191.9,489.2 212.6,489.1 		"/>
		<polygon clip-path="url(#SVGID_2_)" fill="#E6C220" points="-31.9,774.3 -37.8,766.7 195.8,489.3 208.1,489.1 		"/>
		<polygon clip-path="url(#SVGID_2_)" fill="#FFF392" points="86.8,776.9 77,764.1 308.7,489.1 328.8,489.2 		"/>
		<polygon clip-path="url(#SVGID_2_)" fill="#E6C220" points="84.8,774.3 79,766.7 312.5,489.3 325.3,489.2 		"/>
		<polygon clip-path="url(#SVGID_2_)" fill="#FFF392" points="203.5,776.9 193.7,764.1 425.4,489.1 445.4,489.2 		"/>
		<polygon clip-path="url(#SVGID_2_)" fill="#E6C220" points="201.6,774.3 195.7,766.7 429.3,489.3 441.6,489.2 		"/>
		<polygon clip-path="url(#SVGID_2_)" fill="#FFF392" points="320.2,776.9 310.4,764.1 542.1,489.1 562.2,489.1 		"/>
		<polygon clip-path="url(#SVGID_2_)" fill="#E6C220" points="318.3,774.3 312.4,766.7 546.1,489.1 558.2,489.1 		"/>
		<polygon clip-path="url(#SVGID_2_)" fill="#FFF392" points="436.9,776.9 427.1,764.1 658.8,489.1 678.8,489.2 		"/>
		<polygon clip-path="url(#SVGID_2_)" fill="#E6C220" points="435,774.3 429.1,766.7 662.8,489.2 674.8,489.2 		"/>
		<polygon clip-path="url(#SVGID_2_)" fill="#FFF392" points="553.7,776.9 543.9,764.1 775.5,489.1 795.6,489.2 		"/>
		<polygon clip-path="url(#SVGID_2_)" fill="#E6C220" points="551.7,774.3 545.8,766.7 779.5,489.2 791.5,489.2 		"/>
		<polygon clip-path="url(#SVGID_2_)" fill="#FFF392" points="670.4,776.9 660.6,764.1 892.3,489.1 912.3,489.2 		"/>
		<polygon clip-path="url(#SVGID_2_)" fill="#E6C220" points="668.4,774.3 662.6,766.7 896.1,489.3 908.3,489.2 		"/>
		<polygon clip-path="url(#SVGID_2_)" fill="#FFF392" points="787.1,776.9 777.3,764.1 1008.9,489.2 1029,489.2 		"/>
		<polygon clip-path="url(#SVGID_2_)" fill="#E6C220" points="785.2,774.3 779.3,766.7 1013,489.2 1025,489.2 		"/>
		<polygon clip-path="url(#SVGID_2_)" fill="#FFF392" points="903.8,776.9 894,764.1 1125.7,489.1 1145.7,489.2 		"/>
		<polygon clip-path="url(#SVGID_2_)" fill="#E6C220" points="901.9,774.3 896,766.7 1129.7,489.2 1141.9,489 		"/>
		<polygon clip-path="url(#SVGID_2_)" fill="#FFF392" points="1020.5,776.9 1010.7,764.1 1242.3,489.3 1262.3,489.3 		"/>
		<polygon clip-path="url(#SVGID_2_)" fill="#E6C220" points="1018.6,774.3 1012.7,766.7 1246.3,489.3 1258.4,489.2 		"/>
		<polygon clip-path="url(#SVGID_2_)" fill="#FFF392" points="1137.3,776.9 1127.5,764.1 1359.1,489.1 1379.2,489.2 		"/>
		<polygon clip-path="url(#SVGID_2_)" fill="#E6C220" points="1135.3,774.3 1129.4,766.7 1363.1,489.2 1375.1,489.2 		"/>
		<polygon clip-path="url(#SVGID_2_)" fill="#FFF392" points="1254,776.9 1244.2,764.1 1475.8,489.2 1495.9,489.2 		"/>
		<polygon clip-path="url(#SVGID_2_)" fill="#E6C220" points="1252,774.3 1246.1,766.7 1479.8,489.2 1491.9,489.2 		"/>
		<polygon clip-path="url(#SVGID_2_)" fill="#FFF392" points="1370.7,776.9 1360.9,764.1 1592.5,489.3 1612.6,489.2 		"/>
		<polygon clip-path="url(#SVGID_2_)" fill="#E6C220" points="1368.8,774.3 1362.9,766.7 1596.6,489.2 1608.7,489.1 		"/>
		<polygon clip-path="url(#SVGID_2_)" fill="#FFF392" points="1489.4,776.9 1479.6,764.1 1711.1,489.3 1731.3,489.2 		"/>
		<polygon clip-path="url(#SVGID_2_)" fill="#E6C220" points="1487.4,774.3 1481.5,766.7 1715.2,489.2 1727.3,489.1 		"/>
		<circle clip-path="url(#SVGID_2_)" fill="#FFF392" cx="143.9" cy="558.4" r="3.3"/>
		<circle clip-path="url(#SVGID_2_)" fill="#FFF392" cx="27.1" cy="558.4" r="3.3"/>
		<circle clip-path="url(#SVGID_2_)" fill="#FFF392" cx="82.5" cy="631.1" r="3.3"/>
		<circle clip-path="url(#SVGID_2_)" fill="#FFF392" cx="199.4" cy="631.1" r="3.3"/>
		<circle clip-path="url(#SVGID_2_)" fill="#FFF392" cx="316.1" cy="631.1" r="3.3"/>
		<circle clip-path="url(#SVGID_2_)" fill="#FFF392" cx="432.7" cy="631.1" r="3.3"/>
		<circle clip-path="url(#SVGID_2_)" fill="#FFF392" cx="549.5" cy="631.1" r="3.3"/>
		<circle clip-path="url(#SVGID_2_)" fill="#FFF392" cx="666.3" cy="631.1" r="3.3"/>
		<circle clip-path="url(#SVGID_2_)" fill="#FFF392" cx="899.6" cy="631.1" r="3.3"/>
		<circle clip-path="url(#SVGID_2_)" fill="#FFF392" cx="1016.3" cy="631.1" r="3.3"/>
		<circle clip-path="url(#SVGID_2_)" fill="#FFF392" cx="1133" cy="631.1" r="3.3"/>
		<circle clip-path="url(#SVGID_2_)" fill="#FFF392" cx="1249.7" cy="631.1" r="3.3"/>
		<circle clip-path="url(#SVGID_2_)" fill="#FFF392" cx="1366.4" cy="631.1" r="3.3"/>
		<circle clip-path="url(#SVGID_2_)" fill="#FFF392" cx="1483.1" cy="631.1" r="3.3"/>
		<circle clip-path="url(#SVGID_2_)" fill="#FFF392" cx="138" cy="703.7" r="3.3"/>
		<circle clip-path="url(#SVGID_2_)" fill="#FFF392" cx="21.3" cy="703.7" r="3.3"/>
		<circle clip-path="url(#SVGID_2_)" fill="#FFF392" cx="260.8" cy="558.4" r="3.3"/>
		<circle clip-path="url(#SVGID_2_)" fill="#FFF392" cx="377.4" cy="558.4" r="3.3"/>
		<circle clip-path="url(#SVGID_2_)" fill="#FFF392" cx="494" cy="558.4" r="3.3"/>
		<circle clip-path="url(#SVGID_2_)" fill="#FFF392" cx="610.6" cy="558.4" r="3.3"/>
		<circle clip-path="url(#SVGID_2_)" fill="#FFF392" cx="960.5" cy="558.4" r="3.3"/>
		<circle clip-path="url(#SVGID_2_)" fill="#FFF392" cx="1077.5" cy="558.4" r="3.3"/>
		<circle clip-path="url(#SVGID_2_)" fill="#FFF392" cx="1194.3" cy="558.4" r="3.3"/>
		<circle clip-path="url(#SVGID_2_)" fill="#FFF392" cx="1310.9" cy="558.4" r="3.3"/>
		<circle clip-path="url(#SVGID_2_)" fill="#FFF392" cx="1427.7" cy="558.4" r="3.3"/>
		<circle clip-path="url(#SVGID_2_)" fill="#FFF392" cx="1544.3" cy="558.4" r="3.3"/>
		<circle clip-path="url(#SVGID_2_)" fill="#FFF392" cx="254.8" cy="703.7" r="3.3"/>
		<circle clip-path="url(#SVGID_2_)" fill="#FFF392" cx="371.4" cy="703.7" r="3.3"/>
		<circle clip-path="url(#SVGID_2_)" fill="#FFF392" cx="488" cy="703.7" r="3.3"/>
		<circle clip-path="url(#SVGID_2_)" fill="#FFF392" cx="605.1" cy="703.7" r="3.3"/>
		<circle clip-path="url(#SVGID_2_)" fill="#FFF392" cx="955.3" cy="703.7" r="3.3"/>
		<circle clip-path="url(#SVGID_2_)" fill="#FFF392" cx="1071.9" cy="703.7" r="3.3"/>
		<circle clip-path="url(#SVGID_2_)" fill="#FFF392" cx="1188.8" cy="703.7" r="3.3"/>
		<circle clip-path="url(#SVGID_2_)" fill="#FFF392" cx="1305.5" cy="703.7" r="3.3"/>
		<circle clip-path="url(#SVGID_2_)" fill="#FFF392" cx="1422.3" cy="703.7" r="3.3"/>
		<circle clip-path="url(#SVGID_2_)" fill="#FFF392" cx="1540.8" cy="703.7" r="3.3"/>
		<rect x="-255.7" y="478.2" clip-path="url(#SVGID_2_)" fill="#FFD355" width="1979.1" height="10.8"/>
		<rect x="-255.7" y="489.3" opacity="0.2" clip-path="url(#SVGID_2_)" fill="#6B5020" width="1979.1" height="7.5"/>
		<g clip-path="url(#SVGID_2_)">
			<circle fill="#FFD355" cx="784" cy="370.8" r="2.6"/>
			<circle fill="#FFD355" cx="784" cy="378.1" r="6.3"/>
			<rect x="745.5" y="429.8" fill="#F7B519" width="76.9" height="16.4"/>
			<rect x="745.5" y="429.8" fill="#FFD355" width="76.9" height="4.1"/>
			<rect x="758.2" y="410" fill="#F7B519" width="51.6" height="19.8"/>
			<rect x="758.2" y="410" fill="#FFD355" width="51.6" height="3.4"/>
			<rect x="764" y="383.2" fill="#F7B519" width="40.1" height="26.8"/>
			<ellipse fill="#FFD355" cx="784" cy="390.9" rx="6.3" ry="4.7"/>
			<g>
				<path fill="#FFD355" d="M784,406.9c-18.9,0-18.9-15.6-18.9-21.4c0-1.3,1.4-2.3,3.1-2.3s3.1,1,3.1,2.3c0,8.7,1.6,16.8,12.8,16.8
					s12.8-8.1,12.8-16.8c0-1.3,1.4-2.3,3.1-2.3s3.1,1,3.1,2.3C802.9,391.3,802.9,406.9,784,406.9z"/>
			</g>
			<rect x="725.4" y="446.2" fill="#C9842A" width="117.1" height="339.4"/>
			<path fill="#FFD355" d="M809.8,477.7l-0.6,245.7h-51.6l0.6-245.7H809.8 M814,473.5h-4.2h-51.6H754v4.2l-0.6,245.7v4.2h4.2h51.6
				h4.2v-4.2l0.6-245.7V473.5L814,473.5z"/>
			<path fill="#FFD355" d="M838.4,450.4v323.9H729.5V450.4H838.4 M842.6,446.2h-4.2H729.5h-4.2v4.2v323.9v4.2h4.2h108.9h4.2v-4.2
				V450.4V446.2L842.6,446.2z"/>
			<rect x="758.2" y="477.7" fill="#AE742A" width="51.6" height="245.3"/>
			<rect x="758.2" y="477.7" fill="#7B5421" width="51.6" height="16.2"/>
		</g>
		<rect x="-249.3" y="746.5" clip-path="url(#SVGID_2_)" fill="#EA9723" width="1962.7" height="48.2"/>
		<rect x="220.3" y="406.9" clip-path="url(#SVGID_2_)" fill="#F7B519" width="30.9" height="71.3"/>
		<rect x="227" y="385.6" clip-path="url(#SVGID_2_)" fill="#FFD355" width="17.5" height="35.7"/>
		<rect x="227" y="421.2" opacity="0.2" clip-path="url(#SVGID_2_)" fill="#6B5020" width="17.5" height="6.2"/>
		<rect x="1336.3" y="406.9" clip-path="url(#SVGID_2_)" fill="#F7B519" width="30.9" height="71.3"/>
		<g clip-path="url(#SVGID_2_)">
			<rect x="1343" y="385.6" fill="#FFD355" width="17.5" height="35.7"/>
			<rect x="1343" y="421.2" opacity="0.2" fill="#6B5020" width="17.5" height="6.2"/>
		</g>
		<g clip-path="url(#SVGID_2_)">
			<circle fill="#C9842A" cx="783.9" cy="513.1" r="14"/>
			<circle fill="#C9842A" cx="783.9" cy="537.9" r="14"/>
			<circle fill="#C9842A" cx="783.9" cy="562.7" r="14"/>
			<circle fill="#C9842A" cx="783.9" cy="587.4" r="14"/>
			<circle fill="#C9842A" cx="783.9" cy="612.2" r="14"/>
			<circle fill="#C9842A" cx="783.9" cy="637" r="14"/>
			<circle fill="#C9842A" cx="783.9" cy="661.7" r="14"/>
			<circle fill="#C9842A" cx="783.9" cy="686.5" r="14"/>
		</g>
		<rect x="758.1" y="707" clip-path="url(#SVGID_2_)" fill="#DD9E49" width="51.6" height="16.2"/>
	</g>
</g>
</svg>
