<?xml version="1.0" encoding="UTF-8" standalone="no"?>
<!-- Generator: Adobe Illustrator 17.0.1, SVG Export Plug-In . SVG Version: 6.00 Build 0)  -->

<svg
   xmlns:dc="http://purl.org/dc/elements/1.1/"
   xmlns:cc="http://creativecommons.org/ns#"
   xmlns:rdf="http://www.w3.org/1999/02/22-rdf-syntax-ns#"
   xmlns:svg="http://www.w3.org/2000/svg"
   xmlns="http://www.w3.org/2000/svg"
   xmlns:sodipodi="http://sodipodi.sourceforge.net/DTD/sodipodi-0.dtd"
   xmlns:inkscape="http://www.inkscape.org/namespaces/inkscape"
   version="1.1"
   id="svg2"
   inkscape:version="0.48.4 r9939"
   sodipodi:docname="gdg-fortaleza.svg"
   x="0px"
   y="0px"
   width="350"
   height="60"
   viewBox="251.092 496.181 350.00001 60"
   enable-background="new 251.092 496.181 241.911 60"
   xml:space="preserve"><metadata
   id="metadata73"><rdf:RDF><cc:Work
       rdf:about=""><dc:format>image/svg+xml</dc:format><dc:type
         rdf:resource="http://purl.org/dc/dcmitype/StillImage" /><dc:title /></cc:Work></rdf:RDF></metadata><defs
   id="defs71">
				
				
				
				
			</defs><sodipodi:namedview
   pagecolor="#ffffff"
   bordercolor="#666666"
   borderopacity="1"
   objecttolerance="10"
   gridtolerance="10"
   guidetolerance="10"
   inkscape:pageopacity="0"
   inkscape:pageshadow="2"
   inkscape:window-width="1600"
   inkscape:window-height="837"
   id="namedview69"
   showgrid="false"
   inkscape:zoom="1.2525268"
   inkscape:cx="-3.5927333"
   inkscape:cy="30.000001"
   inkscape:window-x="-8"
   inkscape:window-y="-8"
   inkscape:window-maximized="1"
   inkscape:current-layer="Layer_24" />
<g
   id="layer1"
   inkscape:label="Layer 1"
   inkscape:groupmode="layer">
	<g
   id="g4264"
   transform="translate(-985.90425,-3367.8867)">
		<g
   id="Layer_9">
		</g>
		<g
   id="Layer_10">
		</g>
		<g
   id="Layer_11">
		</g>
		<g
   id="Layer_11_copy">
		</g>
		<g
   id="Layer_8_copy">
		</g>
		<g
   id="Layer_18">
		</g>
		<g
   id="Layer_19">
		</g>
		<g
   id="Layer_13">
		</g>
		<g
   id="Layer_15">
		</g>
		<g
   id="Layer_24">
			<g
   id="g4210">
				<path
   id="path4212"
   inkscape:connector-curvature="0"
   d="m 1249.415,3902.277 -12.117,19.772 c -0.681,1.11 -0.172,2.019 1.131,2.019 h 14.209 c 1.302,0 2.929,-0.906 3.615,-2.013 l 6.416,-10.365 -13.254,-9.413 0,0 z"
   style="fill:none" />
				<path
   id="path4214"
   inkscape:connector-curvature="0"
   d="m 1267.028,3883.49 -10.774,-17.406 c -0.686,-1.107 -2.312,-2.014 -3.615,-2.014 l -14.21,0 c -1.303,0 -1.811,0.909 -1.13,2.019 l 13.796,22.511 7.755,-10.919 8.178,5.809 0,0 z"
   style="fill:none" />
			</g>
			
				<linearGradient
   id="path4221_1_"
   gradientUnits="userSpaceOnUse"
   x1="2465.9128"
   y1="241.4677"
   x2="2481.4009"
   y2="231.78979"
   gradientTransform="matrix(1,0,0,-1,-1221.8945,4148.6489)">
				<stop
   offset="0.54"
   style="stop-color:#0A985C"
   id="stop19" />
				<stop
   offset="0.54"
   style="stop-color:#F6C25B"
   id="stop21" />
			</linearGradient>
			<path
   id="path4221"
   inkscape:connector-curvature="0"
   d="m 1261.928,3907.385 c -1.179,-1.983 -4.039,-7.077 -6.177,-10.872 l -2.412,-4.248 c 0.555,1.118 0.515,2.779 -0.122,3.819 l -15.911,25.963 c -0.68,1.109 -0.172,2.02 1.132,2.02 h 14.207 c 1.303,0 2.93,-0.907 3.615,-2.014 l 6.427,-10.378 c -0.137,0.188 0.759,-1.74 -0.759,-4.29 l 0,0 z"
   style="fill:url(#path4221_1_)" />
			<g
   id="g4223">
				<path
   id="path4225"
   inkscape:connector-curvature="0"
   d="m 1249.422,3902.275 -12.116,19.773 c -0.68,1.109 -0.171,2.02 1.132,2.02 h 14.208 c 1.303,0 2.929,-0.907 3.615,-2.014 l 6.419,-10.366 -13.258,-9.413 0,0 z"
   style="fill:none" />
				<path
   id="path4227"
   inkscape:connector-curvature="0"
   d="m 1267.036,3883.487 -10.776,-17.406 c -0.683,-1.108 -2.311,-2.013 -3.613,-2.013 h -14.209 c -1.304,0 -1.812,0.909 -1.132,2.02 l 13.797,22.513 7.757,-10.921 8.176,5.807 0,0 z"
   style="fill:none" />
				<path
   id="path4229"
   inkscape:connector-curvature="0"
   enable-background="new    "
   d="m 1272.339,3896.083 c 0.688,-1.108 0.688,-2.922 0,-4.03 l -5.304,-8.567 -8.177,-5.808 -7.757,10.921 2.114,3.448 c 0.681,1.11 0.681,2.928 0,4.038 l -3.795,6.19 13.257,9.413 9.66,-15.605 0,0 z"
   style="opacity:0.08999999;fill:#010101" />
			</g>
			
				<linearGradient
   id="path4236_1_"
   gradientUnits="userSpaceOnUse"
   x1="2470.3823"
   y1="259.66019"
   x2="2486.2651"
   y2="269.58481"
   gradientTransform="matrix(1,0,0,-1,-1221.8945,4148.6489)">
				<stop
   offset="0.57"
   style="stop-color:#5586C5"
   id="stop29" />
				<stop
   offset="0.57"
   style="stop-color:#D9423E"
   id="stop31" />
			</linearGradient>
			<path
   id="path4236"
   inkscape:connector-curvature="0"
   d="m 1272.336,3892.058 -16.076,-25.973 c -0.685,-1.108 -2.313,-2.014 -3.615,-2.014 h -14.212 c -1.302,0 -1.81,0.908 -1.13,2.02 l 15.911,25.961 2.536,4.462 c 2.138,3.794 4.998,8.888 6.177,10.872 1.775,2.985 0.247,5.115 0.935,4.006 l 9.474,-15.304 c 0.686,-1.109 0.686,-2.92 0,-4.03 z m -19.103,0.024 c 0.016,0.027 0.036,0.057 0.057,0.094 l 0,0 c 0,0 0,0 0,0.01 -0.022,-0.039 -0.043,-0.072 -0.061,-0.101 z m 1.134,1.979 c 0.053,0.096 0.11,0.196 0.168,0.296 -0.058,-0.1 -0.114,-0.2 -0.168,-0.296 z m -0.014,-0.036 c 0.088,0.155 0.178,0.314 0.271,0.479 -0.093,-0.166 -0.184,-0.325 -0.271,-0.479 z"
   style="fill:url(#path4236_1_)">
				
					<namedview
   zoom="0.0875"
   showgrid="false"
   document-units="px"
   guide-bbox="true"
   pageshadow="2"
   window-y="-4"
   cx="1267.4286"
   pageopacity="0.0"
   cy="885.96512"
   window-x="-4"
   pagecolor="#ffffff"
   showguides="true"
   window-height="712"
   window-width="1280"
   current-layer="layer1"
   borderopacity="1.0"
   bordercolor="#666666"
   id="namedview34">
					<guide
   orientation="0,1"
   position="-3095.1074,2723.3713"
   id="guide5732" />
				</namedview>
			</path>
			<g
   enable-background="new    "
   id="g37">
				<path
   d="m 1306.167,3890.121 h 14.065 v 17.564 c -3.819,1.308 -8.017,1.961 -12.594,1.961 -5.023,0 -8.905,-1.456 -11.646,-4.368 -2.741,-2.912 -4.112,-7.066 -4.112,-12.46 0,-5.261 1.5,-9.354 4.502,-12.282 3.001,-2.927 7.207,-4.391 12.616,-4.391 2.051,0 3.986,0.193 5.807,0.58 1.821,0.387 3.407,0.877 4.759,1.471 l -2.786,6.91 c -2.348,-1.159 -4.926,-1.739 -7.734,-1.739 -2.571,0 -4.559,0.836 -5.963,2.508 -1.404,1.671 -2.106,4.061 -2.106,7.166 0,3.047 0.635,5.368 1.906,6.966 1.271,1.598 3.102,2.396 5.494,2.396 1.308,0 2.511,-0.126 3.611,-0.379 v -5.104 h -5.817 v -6.799 z"
   id="path39"
   inkscape:connector-curvature="0"
   style="fill:#4e4e4e" />
				<path
   d="m 1351.843,3892.217 c 0,5.439 -1.498,9.629 -4.492,12.572 -2.994,2.943 -7.203,4.413 -12.627,4.413 h -10.543 v -32.588 h 11.278 c 5.23,0 9.27,1.337 12.115,4.012 2.845,2.675 4.269,6.538 4.269,11.591 z m -9.14,0.312 c 0,-2.987 -0.59,-5.201 -1.771,-6.642 -1.181,-1.441 -2.976,-2.162 -5.383,-2.162 h -2.563 v 18.255 h 1.961 c 2.675,0 4.637,-0.776 5.885,-2.329 1.248,-1.553 1.871,-3.927 1.871,-7.122 z"
   id="path41"
   inkscape:connector-curvature="0"
   style="fill:#4e4e4e" />
				<path
   d="m 1368.074,3890.121 h 14.064 v 17.564 c -3.819,1.308 -8.018,1.961 -12.594,1.961 -5.022,0 -8.904,-1.456 -11.646,-4.368 -2.741,-2.912 -4.112,-7.066 -4.112,-12.46 0,-5.261 1.501,-9.354 4.503,-12.282 3.001,-2.927 7.207,-4.391 12.615,-4.391 2.051,0 3.986,0.193 5.807,0.58 1.821,0.387 3.406,0.877 4.759,1.471 l -2.786,6.91 c -2.348,-1.159 -4.926,-1.739 -7.734,-1.739 -2.571,0 -4.559,0.836 -5.963,2.508 -1.403,1.671 -2.105,4.061 -2.105,7.166 0,3.047 0.635,5.368 1.905,6.966 1.27,1.598 3.102,2.396 5.494,2.396 1.308,0 2.511,-0.126 3.611,-0.379 v -5.104 h -5.817 v -6.799 z"
   id="path43"
   inkscape:connector-curvature="0"
   style="fill:#4e4e4e" />
			</g>
			<g
   id="g45">
			</g>
			
		<text
   xml:space="preserve"
   style="font-size:40px;font-style:normal;font-variant:normal;font-weight:normal;font-stretch:normal;line-height:125%;letter-spacing:0px;word-spacing:0px;fill:#4e4e4e;fill-opacity:1;stroke:none;font-family:Open Sans;-inkscape-font-specification:Open Sans"
   x="1396.6735"
   y="3906.5032"
   id="text3027"
   sodipodi:linespacing="125%"><tspan
     sodipodi:role="line"
     id="tspan3029"
     x="1396.6735"
     y="3906.5032">Fortaleza</tspan></text>

</g>
		<g
   id="Layer_25">
		</g>
		<g
   id="Layer_26">
		</g>
		<g
   id="Layer_27">
		</g>
		<g
   id="Layer_28">
		</g>
		<g
   id="Layer_29">
		</g>
		<g
   id="Layer_30">
		</g>
		<g
   id="Layer_31">
		</g>
		<g
   id="Layer_32">
		</g>
		<g
   id="Layer_33">
		</g>
		<g
   id="Layer_34">
		</g>
		<g
   id="Layer_36">
		</g>
		<g
   id="Layer_35">
		</g>
	</g>
</g>
</svg>